G04 #@! TF.GenerationSoftware,KiCad,Pcbnew,5.1.6-c6e7f7d~87~ubuntu18.04.1*
G04 #@! TF.CreationDate,2020-08-31T14:31:46+09:00*
G04 #@! TF.ProjectId,adamr2_emg_board,6164616d-7232-45f6-956d-675f626f6172,rev?*
G04 #@! TF.SameCoordinates,Original*
G04 #@! TF.FileFunction,Legend,Top*
G04 #@! TF.FilePolarity,Positive*
%FSLAX46Y46*%
G04 Gerber Fmt 4.6, Leading zero omitted, Abs format (unit mm)*
G04 Created by KiCad (PCBNEW 5.1.6-c6e7f7d~87~ubuntu18.04.1) date 2020-08-31 14:31:46*
%MOMM*%
%LPD*%
G01*
G04 APERTURE LIST*
%ADD10C,0.200000*%
%ADD11C,0.150000*%
%ADD12C,0.120000*%
G04 APERTURE END LIST*
D10*
X141203142Y-109689571D02*
X141203142Y-108189571D01*
X142060285Y-109689571D01*
X142060285Y-108189571D01*
X142774571Y-109546714D02*
X142846000Y-109618142D01*
X142774571Y-109689571D01*
X142703142Y-109618142D01*
X142774571Y-109546714D01*
X142774571Y-109689571D01*
X143488857Y-109689571D02*
X143488857Y-108189571D01*
X144203142Y-109546714D02*
X144274571Y-109618142D01*
X144203142Y-109689571D01*
X144131714Y-109618142D01*
X144203142Y-109546714D01*
X144203142Y-109689571D01*
X144703142Y-108189571D02*
X145560285Y-108189571D01*
X145131714Y-109689571D02*
X145131714Y-108189571D01*
X146060285Y-109546714D02*
X146131714Y-109618142D01*
X146060285Y-109689571D01*
X145988857Y-109618142D01*
X146060285Y-109546714D01*
X146060285Y-109689571D01*
X146774571Y-109689571D02*
X146774571Y-108189571D01*
X147488857Y-109546714D02*
X147560285Y-109618142D01*
X147488857Y-109689571D01*
X147417428Y-109618142D01*
X147488857Y-109546714D01*
X147488857Y-109689571D01*
X149060285Y-109546714D02*
X148988857Y-109618142D01*
X148774571Y-109689571D01*
X148631714Y-109689571D01*
X148417428Y-109618142D01*
X148274571Y-109475285D01*
X148203142Y-109332428D01*
X148131714Y-109046714D01*
X148131714Y-108832428D01*
X148203142Y-108546714D01*
X148274571Y-108403857D01*
X148417428Y-108261000D01*
X148631714Y-108189571D01*
X148774571Y-108189571D01*
X148988857Y-108261000D01*
X149060285Y-108332428D01*
X149703142Y-109546714D02*
X149774571Y-109618142D01*
X149703142Y-109689571D01*
X149631714Y-109618142D01*
X149703142Y-109546714D01*
X149703142Y-109689571D01*
X152060285Y-108903857D02*
X151560285Y-108903857D01*
X151560285Y-109689571D02*
X151560285Y-108189571D01*
X152274571Y-108189571D01*
X153274571Y-108189571D02*
X153274571Y-109261000D01*
X153203142Y-109475285D01*
X153060285Y-109618142D01*
X152846000Y-109689571D01*
X152703142Y-109689571D01*
X153846000Y-108189571D02*
X154203142Y-109689571D01*
X154488857Y-108618142D01*
X154774571Y-109689571D01*
X155131714Y-108189571D01*
X156560285Y-109689571D02*
X156060285Y-108975285D01*
X155703142Y-109689571D02*
X155703142Y-108189571D01*
X156274571Y-108189571D01*
X156417428Y-108261000D01*
X156488857Y-108332428D01*
X156560285Y-108475285D01*
X156560285Y-108689571D01*
X156488857Y-108832428D01*
X156417428Y-108903857D01*
X156274571Y-108975285D01*
X155703142Y-108975285D01*
X159060285Y-109689571D02*
X158346000Y-109689571D01*
X158346000Y-108189571D01*
X160203142Y-109689571D02*
X160203142Y-108903857D01*
X160131714Y-108761000D01*
X159988857Y-108689571D01*
X159703142Y-108689571D01*
X159560285Y-108761000D01*
X160203142Y-109618142D02*
X160060285Y-109689571D01*
X159703142Y-109689571D01*
X159560285Y-109618142D01*
X159488857Y-109475285D01*
X159488857Y-109332428D01*
X159560285Y-109189571D01*
X159703142Y-109118142D01*
X160060285Y-109118142D01*
X160203142Y-109046714D01*
X160917428Y-109689571D02*
X160917428Y-108189571D01*
X160917428Y-108761000D02*
X161060285Y-108689571D01*
X161346000Y-108689571D01*
X161488857Y-108761000D01*
X161560285Y-108832428D01*
X161631714Y-108975285D01*
X161631714Y-109403857D01*
X161560285Y-109546714D01*
X161488857Y-109618142D01*
X161346000Y-109689571D01*
X161060285Y-109689571D01*
X160917428Y-109618142D01*
X162274571Y-109546714D02*
X162346000Y-109618142D01*
X162274571Y-109689571D01*
X162203142Y-109618142D01*
X162274571Y-109546714D01*
X162274571Y-109689571D01*
X141131714Y-111711000D02*
X141846000Y-111711000D01*
X140988857Y-112139571D02*
X141488857Y-110639571D01*
X141988857Y-112139571D01*
X142488857Y-112139571D02*
X142488857Y-110639571D01*
X142846000Y-110639571D01*
X143060285Y-110711000D01*
X143203142Y-110853857D01*
X143274571Y-110996714D01*
X143346000Y-111282428D01*
X143346000Y-111496714D01*
X143274571Y-111782428D01*
X143203142Y-111925285D01*
X143060285Y-112068142D01*
X142846000Y-112139571D01*
X142488857Y-112139571D01*
X143917428Y-111711000D02*
X144631714Y-111711000D01*
X143774571Y-112139571D02*
X144274571Y-110639571D01*
X144774571Y-112139571D01*
X145274571Y-112139571D02*
X145274571Y-110639571D01*
X145774571Y-111711000D01*
X146274571Y-110639571D01*
X146274571Y-112139571D01*
X147846000Y-112139571D02*
X147346000Y-111425285D01*
X146988857Y-112139571D02*
X146988857Y-110639571D01*
X147560285Y-110639571D01*
X147703142Y-110711000D01*
X147774571Y-110782428D01*
X147846000Y-110925285D01*
X147846000Y-111139571D01*
X147774571Y-111282428D01*
X147703142Y-111353857D01*
X147560285Y-111425285D01*
X146988857Y-111425285D01*
X148417428Y-110782428D02*
X148488857Y-110711000D01*
X148631714Y-110639571D01*
X148988857Y-110639571D01*
X149131714Y-110711000D01*
X149203142Y-110782428D01*
X149274571Y-110925285D01*
X149274571Y-111068142D01*
X149203142Y-111282428D01*
X148346000Y-112139571D01*
X149274571Y-112139571D01*
X151060285Y-112139571D02*
X151060285Y-110639571D01*
X151631714Y-110639571D01*
X151774571Y-110711000D01*
X151846000Y-110782428D01*
X151917428Y-110925285D01*
X151917428Y-111139571D01*
X151846000Y-111282428D01*
X151774571Y-111353857D01*
X151631714Y-111425285D01*
X151060285Y-111425285D01*
X152560285Y-112139571D02*
X152560285Y-111139571D01*
X152560285Y-111425285D02*
X152631714Y-111282428D01*
X152703142Y-111211000D01*
X152846000Y-111139571D01*
X152988857Y-111139571D01*
X153703142Y-112139571D02*
X153560285Y-112068142D01*
X153488857Y-111996714D01*
X153417428Y-111853857D01*
X153417428Y-111425285D01*
X153488857Y-111282428D01*
X153560285Y-111211000D01*
X153703142Y-111139571D01*
X153917428Y-111139571D01*
X154060285Y-111211000D01*
X154131714Y-111282428D01*
X154203142Y-111425285D01*
X154203142Y-111853857D01*
X154131714Y-111996714D01*
X154060285Y-112068142D01*
X153917428Y-112139571D01*
X153703142Y-112139571D01*
X154846000Y-111139571D02*
X154846000Y-112425285D01*
X154774571Y-112568142D01*
X154631714Y-112639571D01*
X154560285Y-112639571D01*
X154846000Y-110639571D02*
X154774571Y-110711000D01*
X154846000Y-110782428D01*
X154917428Y-110711000D01*
X154846000Y-110639571D01*
X154846000Y-110782428D01*
X156131714Y-112068142D02*
X155988857Y-112139571D01*
X155703142Y-112139571D01*
X155560285Y-112068142D01*
X155488857Y-111925285D01*
X155488857Y-111353857D01*
X155560285Y-111211000D01*
X155703142Y-111139571D01*
X155988857Y-111139571D01*
X156131714Y-111211000D01*
X156203142Y-111353857D01*
X156203142Y-111496714D01*
X155488857Y-111639571D01*
X157488857Y-112068142D02*
X157346000Y-112139571D01*
X157060285Y-112139571D01*
X156917428Y-112068142D01*
X156846000Y-111996714D01*
X156774571Y-111853857D01*
X156774571Y-111425285D01*
X156846000Y-111282428D01*
X156917428Y-111211000D01*
X157060285Y-111139571D01*
X157346000Y-111139571D01*
X157488857Y-111211000D01*
X157917428Y-111139571D02*
X158488857Y-111139571D01*
X158131714Y-110639571D02*
X158131714Y-111925285D01*
X158203142Y-112068142D01*
X158346000Y-112139571D01*
X158488857Y-112139571D01*
D11*
X148661428Y-78478571D02*
X148661428Y-78811904D01*
X148137619Y-78954761D02*
X148137619Y-78478571D01*
X149137619Y-78478571D01*
X149137619Y-78954761D01*
X148137619Y-79383333D02*
X149137619Y-79383333D01*
X148423333Y-79716666D01*
X149137619Y-80050000D01*
X148137619Y-80050000D01*
X149090000Y-81050000D02*
X149137619Y-80954761D01*
X149137619Y-80811904D01*
X149090000Y-80669047D01*
X148994761Y-80573809D01*
X148899523Y-80526190D01*
X148709047Y-80478571D01*
X148566190Y-80478571D01*
X148375714Y-80526190D01*
X148280476Y-80573809D01*
X148185238Y-80669047D01*
X148137619Y-80811904D01*
X148137619Y-80907142D01*
X148185238Y-81050000D01*
X148232857Y-81097619D01*
X148566190Y-81097619D01*
X148566190Y-80907142D01*
X148185238Y-82240476D02*
X148137619Y-82383333D01*
X148137619Y-82621428D01*
X148185238Y-82716666D01*
X148232857Y-82764285D01*
X148328095Y-82811904D01*
X148423333Y-82811904D01*
X148518571Y-82764285D01*
X148566190Y-82716666D01*
X148613809Y-82621428D01*
X148661428Y-82430952D01*
X148709047Y-82335714D01*
X148756666Y-82288095D01*
X148851904Y-82240476D01*
X148947142Y-82240476D01*
X149042380Y-82288095D01*
X149090000Y-82335714D01*
X149137619Y-82430952D01*
X149137619Y-82669047D01*
X149090000Y-82811904D01*
X148804285Y-83145238D02*
X148137619Y-83335714D01*
X148613809Y-83526190D01*
X148137619Y-83716666D01*
X148804285Y-83907142D01*
X148137619Y-84288095D02*
X148804285Y-84288095D01*
X149137619Y-84288095D02*
X149090000Y-84240476D01*
X149042380Y-84288095D01*
X149090000Y-84335714D01*
X149137619Y-84288095D01*
X149042380Y-84288095D01*
X148804285Y-84621428D02*
X148804285Y-85002380D01*
X149137619Y-84764285D02*
X148280476Y-84764285D01*
X148185238Y-84811904D01*
X148137619Y-84907142D01*
X148137619Y-85002380D01*
X148185238Y-85764285D02*
X148137619Y-85669047D01*
X148137619Y-85478571D01*
X148185238Y-85383333D01*
X148232857Y-85335714D01*
X148328095Y-85288095D01*
X148613809Y-85288095D01*
X148709047Y-85335714D01*
X148756666Y-85383333D01*
X148804285Y-85478571D01*
X148804285Y-85669047D01*
X148756666Y-85764285D01*
X148137619Y-86192857D02*
X149137619Y-86192857D01*
X148137619Y-86621428D02*
X148661428Y-86621428D01*
X148756666Y-86573809D01*
X148804285Y-86478571D01*
X148804285Y-86335714D01*
X148756666Y-86240476D01*
X148709047Y-86192857D01*
X146880952Y-89500000D02*
X146785714Y-89452380D01*
X146642857Y-89452380D01*
X146500000Y-89500000D01*
X146404761Y-89595238D01*
X146357142Y-89690476D01*
X146309523Y-89880952D01*
X146309523Y-90023809D01*
X146357142Y-90214285D01*
X146404761Y-90309523D01*
X146500000Y-90404761D01*
X146642857Y-90452380D01*
X146738095Y-90452380D01*
X146880952Y-90404761D01*
X146928571Y-90357142D01*
X146928571Y-90023809D01*
X146738095Y-90023809D01*
X147785714Y-89452380D02*
X147595238Y-89452380D01*
X147500000Y-89500000D01*
X147452380Y-89547619D01*
X147357142Y-89690476D01*
X147309523Y-89880952D01*
X147309523Y-90261904D01*
X147357142Y-90357142D01*
X147404761Y-90404761D01*
X147500000Y-90452380D01*
X147690476Y-90452380D01*
X147785714Y-90404761D01*
X147833333Y-90357142D01*
X147880952Y-90261904D01*
X147880952Y-90023809D01*
X147833333Y-89928571D01*
X147785714Y-89880952D01*
X147690476Y-89833333D01*
X147500000Y-89833333D01*
X147404761Y-89880952D01*
X147357142Y-89928571D01*
X147309523Y-90023809D01*
X148880952Y-90357142D02*
X148833333Y-90404761D01*
X148690476Y-90452380D01*
X148595238Y-90452380D01*
X148452380Y-90404761D01*
X148357142Y-90309523D01*
X148309523Y-90214285D01*
X148261904Y-90023809D01*
X148261904Y-89880952D01*
X148309523Y-89690476D01*
X148357142Y-89595238D01*
X148452380Y-89500000D01*
X148595238Y-89452380D01*
X148690476Y-89452380D01*
X148833333Y-89500000D01*
X148880952Y-89547619D01*
X149309523Y-90071428D02*
X150071428Y-90071428D01*
X151071428Y-90452380D02*
X150500000Y-90452380D01*
X150785714Y-90452380D02*
X150785714Y-89452380D01*
X150690476Y-89595238D01*
X150595238Y-89690476D01*
X150500000Y-89738095D01*
X152023809Y-90452380D02*
X151452380Y-90452380D01*
X151738095Y-90452380D02*
X151738095Y-89452380D01*
X151642857Y-89595238D01*
X151547619Y-89690476D01*
X151452380Y-89738095D01*
X152976190Y-90452380D02*
X152404761Y-90452380D01*
X152690476Y-90452380D02*
X152690476Y-89452380D01*
X152595238Y-89595238D01*
X152500000Y-89690476D01*
X152404761Y-89738095D01*
X153833333Y-89785714D02*
X153833333Y-90452380D01*
X153595238Y-89404761D02*
X153357142Y-90119047D01*
X153976190Y-90119047D01*
X154357142Y-90452380D02*
X154357142Y-89452380D01*
X154738095Y-89452380D01*
X154833333Y-89500000D01*
X154880952Y-89547619D01*
X154928571Y-89642857D01*
X154928571Y-89785714D01*
X154880952Y-89880952D01*
X154833333Y-89928571D01*
X154738095Y-89976190D01*
X154357142Y-89976190D01*
X155357142Y-90071428D02*
X156119047Y-90071428D01*
X156595238Y-89452380D02*
X156595238Y-90261904D01*
X156642857Y-90357142D01*
X156690476Y-90404761D01*
X156785714Y-90452380D01*
X156976190Y-90452380D01*
X157071428Y-90404761D01*
X157119047Y-90357142D01*
X157166666Y-90261904D01*
X157166666Y-89452380D01*
X157595238Y-90404761D02*
X157738095Y-90452380D01*
X157976190Y-90452380D01*
X158071428Y-90404761D01*
X158119047Y-90357142D01*
X158166666Y-90261904D01*
X158166666Y-90166666D01*
X158119047Y-90071428D01*
X158071428Y-90023809D01*
X157976190Y-89976190D01*
X157785714Y-89928571D01*
X157690476Y-89880952D01*
X157642857Y-89833333D01*
X157595238Y-89738095D01*
X157595238Y-89642857D01*
X157642857Y-89547619D01*
X157690476Y-89500000D01*
X157785714Y-89452380D01*
X158023809Y-89452380D01*
X158166666Y-89500000D01*
X159357142Y-90452380D02*
X159357142Y-89452380D01*
X159595238Y-89452380D01*
X159738095Y-89500000D01*
X159833333Y-89595238D01*
X159880952Y-89690476D01*
X159928571Y-89880952D01*
X159928571Y-90023809D01*
X159880952Y-90214285D01*
X159833333Y-90309523D01*
X159738095Y-90404761D01*
X159595238Y-90452380D01*
X159357142Y-90452380D01*
X160928571Y-90357142D02*
X160880952Y-90404761D01*
X160738095Y-90452380D01*
X160642857Y-90452380D01*
X160500000Y-90404761D01*
X160404761Y-90309523D01*
X160357142Y-90214285D01*
X160309523Y-90023809D01*
X160309523Y-89880952D01*
X160357142Y-89690476D01*
X160404761Y-89595238D01*
X160500000Y-89500000D01*
X160642857Y-89452380D01*
X160738095Y-89452380D01*
X160880952Y-89500000D01*
X160928571Y-89547619D01*
X161309523Y-89547619D02*
X161357142Y-89500000D01*
X161452380Y-89452380D01*
X161690476Y-89452380D01*
X161785714Y-89500000D01*
X161833333Y-89547619D01*
X161880952Y-89642857D01*
X161880952Y-89738095D01*
X161833333Y-89880952D01*
X161261904Y-90452380D01*
X161880952Y-90452380D01*
X162738095Y-89785714D02*
X162738095Y-90452380D01*
X162500000Y-89404761D02*
X162261904Y-90119047D01*
X162880952Y-90119047D01*
X163119047Y-89452380D02*
X163452380Y-90452380D01*
X163785714Y-89452380D01*
X166076380Y-102761904D02*
X166076380Y-103238095D01*
X166552571Y-103285714D01*
X166504952Y-103238095D01*
X166457333Y-103142857D01*
X166457333Y-102904761D01*
X166504952Y-102809523D01*
X166552571Y-102761904D01*
X166647809Y-102714285D01*
X166885904Y-102714285D01*
X166981142Y-102761904D01*
X167028761Y-102809523D01*
X167076380Y-102904761D01*
X167076380Y-103142857D01*
X167028761Y-103238095D01*
X166981142Y-103285714D01*
X166981142Y-102285714D02*
X167028761Y-102238095D01*
X167076380Y-102285714D01*
X167028761Y-102333333D01*
X166981142Y-102285714D01*
X167076380Y-102285714D01*
X166171619Y-101857142D02*
X166124000Y-101809523D01*
X166076380Y-101714285D01*
X166076380Y-101476190D01*
X166124000Y-101380952D01*
X166171619Y-101333333D01*
X166266857Y-101285714D01*
X166362095Y-101285714D01*
X166504952Y-101333333D01*
X167076380Y-101904761D01*
X167076380Y-101285714D01*
X167076380Y-100952380D02*
X166409714Y-100428571D01*
X166409714Y-100952380D02*
X167076380Y-100428571D01*
X166171619Y-100095238D02*
X166124000Y-100047619D01*
X166076380Y-99952380D01*
X166076380Y-99714285D01*
X166124000Y-99619047D01*
X166171619Y-99571428D01*
X166266857Y-99523809D01*
X166362095Y-99523809D01*
X166504952Y-99571428D01*
X167076380Y-100142857D01*
X167076380Y-99523809D01*
X166076380Y-98904761D02*
X166076380Y-98809523D01*
X166124000Y-98714285D01*
X166171619Y-98666666D01*
X166266857Y-98619047D01*
X166457333Y-98571428D01*
X166695428Y-98571428D01*
X166885904Y-98619047D01*
X166981142Y-98666666D01*
X167028761Y-98714285D01*
X167076380Y-98809523D01*
X167076380Y-98904761D01*
X167028761Y-99000000D01*
X166981142Y-99047619D01*
X166885904Y-99095238D01*
X166695428Y-99142857D01*
X166457333Y-99142857D01*
X166266857Y-99095238D01*
X166171619Y-99047619D01*
X166124000Y-99000000D01*
X166076380Y-98904761D01*
X167076380Y-98142857D02*
X166409714Y-98142857D01*
X166504952Y-98142857D02*
X166457333Y-98095238D01*
X166409714Y-98000000D01*
X166409714Y-97857142D01*
X166457333Y-97761904D01*
X166552571Y-97714285D01*
X167076380Y-97714285D01*
X166552571Y-97714285D02*
X166457333Y-97666666D01*
X166409714Y-97571428D01*
X166409714Y-97428571D01*
X166457333Y-97333333D01*
X166552571Y-97285714D01*
X167076380Y-97285714D01*
X167076380Y-96809523D02*
X166409714Y-96809523D01*
X166504952Y-96809523D02*
X166457333Y-96761904D01*
X166409714Y-96666666D01*
X166409714Y-96523809D01*
X166457333Y-96428571D01*
X166552571Y-96380952D01*
X167076380Y-96380952D01*
X166552571Y-96380952D02*
X166457333Y-96333333D01*
X166409714Y-96238095D01*
X166409714Y-96095238D01*
X166457333Y-96000000D01*
X166552571Y-95952380D01*
X167076380Y-95952380D01*
X166124000Y-94190476D02*
X166076380Y-94285714D01*
X166076380Y-94428571D01*
X166124000Y-94571428D01*
X166219238Y-94666666D01*
X166314476Y-94714285D01*
X166504952Y-94761904D01*
X166647809Y-94761904D01*
X166838285Y-94714285D01*
X166933523Y-94666666D01*
X167028761Y-94571428D01*
X167076380Y-94428571D01*
X167076380Y-94333333D01*
X167028761Y-94190476D01*
X166981142Y-94142857D01*
X166647809Y-94142857D01*
X166647809Y-94333333D01*
X167076380Y-93571428D02*
X167028761Y-93666666D01*
X166933523Y-93714285D01*
X166076380Y-93714285D01*
X167076380Y-92761904D02*
X166552571Y-92761904D01*
X166457333Y-92809523D01*
X166409714Y-92904761D01*
X166409714Y-93095238D01*
X166457333Y-93190476D01*
X167028761Y-92761904D02*
X167076380Y-92857142D01*
X167076380Y-93095238D01*
X167028761Y-93190476D01*
X166933523Y-93238095D01*
X166838285Y-93238095D01*
X166743047Y-93190476D01*
X166695428Y-93095238D01*
X166695428Y-92857142D01*
X166647809Y-92761904D01*
X167028761Y-92333333D02*
X167076380Y-92238095D01*
X167076380Y-92047619D01*
X167028761Y-91952380D01*
X166933523Y-91904761D01*
X166885904Y-91904761D01*
X166790666Y-91952380D01*
X166743047Y-92047619D01*
X166743047Y-92190476D01*
X166695428Y-92285714D01*
X166600190Y-92333333D01*
X166552571Y-92333333D01*
X166457333Y-92285714D01*
X166409714Y-92190476D01*
X166409714Y-92047619D01*
X166457333Y-91952380D01*
X167028761Y-91523809D02*
X167076380Y-91428571D01*
X167076380Y-91238095D01*
X167028761Y-91142857D01*
X166933523Y-91095238D01*
X166885904Y-91095238D01*
X166790666Y-91142857D01*
X166743047Y-91238095D01*
X166743047Y-91380952D01*
X166695428Y-91476190D01*
X166600190Y-91523809D01*
X166552571Y-91523809D01*
X166457333Y-91476190D01*
X166409714Y-91380952D01*
X166409714Y-91238095D01*
X166457333Y-91142857D01*
X166076380Y-90047619D02*
X166076380Y-89476190D01*
X167076380Y-89761904D02*
X166076380Y-89761904D01*
X166409714Y-88714285D02*
X167076380Y-88714285D01*
X166409714Y-89142857D02*
X166933523Y-89142857D01*
X167028761Y-89095238D01*
X167076380Y-89000000D01*
X167076380Y-88857142D01*
X167028761Y-88761904D01*
X166981142Y-88714285D01*
X167076380Y-88238095D02*
X166076380Y-88238095D01*
X166457333Y-88238095D02*
X166409714Y-88142857D01*
X166409714Y-87952380D01*
X166457333Y-87857142D01*
X166504952Y-87809523D01*
X166600190Y-87761904D01*
X166885904Y-87761904D01*
X166981142Y-87809523D01*
X167028761Y-87857142D01*
X167076380Y-87952380D01*
X167076380Y-88142857D01*
X167028761Y-88238095D01*
X167028761Y-86952380D02*
X167076380Y-87047619D01*
X167076380Y-87238095D01*
X167028761Y-87333333D01*
X166933523Y-87380952D01*
X166552571Y-87380952D01*
X166457333Y-87333333D01*
X166409714Y-87238095D01*
X166409714Y-87047619D01*
X166457333Y-86952380D01*
X166552571Y-86904761D01*
X166647809Y-86904761D01*
X166743047Y-87380952D01*
X166552571Y-85380952D02*
X166552571Y-85714285D01*
X167076380Y-85714285D02*
X166076380Y-85714285D01*
X166076380Y-85238095D01*
X166409714Y-84428571D02*
X167076380Y-84428571D01*
X166409714Y-84857142D02*
X166933523Y-84857142D01*
X167028761Y-84809523D01*
X167076380Y-84714285D01*
X167076380Y-84571428D01*
X167028761Y-84476190D01*
X166981142Y-84428571D01*
X167028761Y-84000000D02*
X167076380Y-83904761D01*
X167076380Y-83714285D01*
X167028761Y-83619047D01*
X166933523Y-83571428D01*
X166885904Y-83571428D01*
X166790666Y-83619047D01*
X166743047Y-83714285D01*
X166743047Y-83857142D01*
X166695428Y-83952380D01*
X166600190Y-84000000D01*
X166552571Y-84000000D01*
X166457333Y-83952380D01*
X166409714Y-83857142D01*
X166409714Y-83714285D01*
X166457333Y-83619047D01*
X167028761Y-82761904D02*
X167076380Y-82857142D01*
X167076380Y-83047619D01*
X167028761Y-83142857D01*
X166933523Y-83190476D01*
X166552571Y-83190476D01*
X166457333Y-83142857D01*
X166409714Y-83047619D01*
X166409714Y-82857142D01*
X166457333Y-82761904D01*
X166552571Y-82714285D01*
X166647809Y-82714285D01*
X166743047Y-83190476D01*
X159547619Y-79454761D02*
X158547619Y-80121428D01*
X159547619Y-80121428D02*
X158547619Y-79454761D01*
X158547619Y-80502380D02*
X159547619Y-80502380D01*
X159071428Y-80502380D02*
X159071428Y-81073809D01*
X158547619Y-81073809D02*
X159547619Y-81073809D01*
X158642857Y-82883333D02*
X158595238Y-82835714D01*
X158547619Y-82692857D01*
X158547619Y-82597619D01*
X158595238Y-82454761D01*
X158690476Y-82359523D01*
X158785714Y-82311904D01*
X158976190Y-82264285D01*
X159119047Y-82264285D01*
X159309523Y-82311904D01*
X159404761Y-82359523D01*
X159500000Y-82454761D01*
X159547619Y-82597619D01*
X159547619Y-82692857D01*
X159500000Y-82835714D01*
X159452380Y-82883333D01*
X158547619Y-83454761D02*
X158595238Y-83359523D01*
X158642857Y-83311904D01*
X158738095Y-83264285D01*
X159023809Y-83264285D01*
X159119047Y-83311904D01*
X159166666Y-83359523D01*
X159214285Y-83454761D01*
X159214285Y-83597619D01*
X159166666Y-83692857D01*
X159119047Y-83740476D01*
X159023809Y-83788095D01*
X158738095Y-83788095D01*
X158642857Y-83740476D01*
X158595238Y-83692857D01*
X158547619Y-83597619D01*
X158547619Y-83454761D01*
X159214285Y-84216666D02*
X158547619Y-84216666D01*
X159119047Y-84216666D02*
X159166666Y-84264285D01*
X159214285Y-84359523D01*
X159214285Y-84502380D01*
X159166666Y-84597619D01*
X159071428Y-84645238D01*
X158547619Y-84645238D01*
X159214285Y-85121428D02*
X158547619Y-85121428D01*
X159119047Y-85121428D02*
X159166666Y-85169047D01*
X159214285Y-85264285D01*
X159214285Y-85407142D01*
X159166666Y-85502380D01*
X159071428Y-85550000D01*
X158547619Y-85550000D01*
X138930000Y-103378095D02*
X138977619Y-103282857D01*
X138977619Y-103140000D01*
X138930000Y-102997142D01*
X138834761Y-102901904D01*
X138739523Y-102854285D01*
X138549047Y-102806666D01*
X138406190Y-102806666D01*
X138215714Y-102854285D01*
X138120476Y-102901904D01*
X138025238Y-102997142D01*
X137977619Y-103140000D01*
X137977619Y-103235238D01*
X138025238Y-103378095D01*
X138072857Y-103425714D01*
X138406190Y-103425714D01*
X138406190Y-103235238D01*
X137977619Y-103854285D02*
X138977619Y-103854285D01*
X137977619Y-104425714D01*
X138977619Y-104425714D01*
X137977619Y-104901904D02*
X138977619Y-104901904D01*
X138977619Y-105140000D01*
X138930000Y-105282857D01*
X138834761Y-105378095D01*
X138739523Y-105425714D01*
X138549047Y-105473333D01*
X138406190Y-105473333D01*
X138215714Y-105425714D01*
X138120476Y-105378095D01*
X138025238Y-105282857D01*
X137977619Y-105140000D01*
X137977619Y-104901904D01*
X141517619Y-95639238D02*
X141517619Y-95829714D01*
X141470000Y-95924952D01*
X141374761Y-96020190D01*
X141184285Y-96067809D01*
X140850952Y-96067809D01*
X140660476Y-96020190D01*
X140565238Y-95924952D01*
X140517619Y-95829714D01*
X140517619Y-95639238D01*
X140565238Y-95544000D01*
X140660476Y-95448761D01*
X140850952Y-95401142D01*
X141184285Y-95401142D01*
X141374761Y-95448761D01*
X141470000Y-95544000D01*
X141517619Y-95639238D01*
X141517619Y-96496380D02*
X140708095Y-96496380D01*
X140612857Y-96544000D01*
X140565238Y-96591619D01*
X140517619Y-96686857D01*
X140517619Y-96877333D01*
X140565238Y-96972571D01*
X140612857Y-97020190D01*
X140708095Y-97067809D01*
X141517619Y-97067809D01*
X141517619Y-97401142D02*
X141517619Y-97972571D01*
X140517619Y-97686857D02*
X141517619Y-97686857D01*
X140517619Y-98305904D02*
X141517619Y-98305904D01*
X141517619Y-98686857D01*
X141470000Y-98782095D01*
X141422380Y-98829714D01*
X141327142Y-98877333D01*
X141184285Y-98877333D01*
X141089047Y-98829714D01*
X141041428Y-98782095D01*
X140993809Y-98686857D01*
X140993809Y-98305904D01*
X141517619Y-99305904D02*
X140708095Y-99305904D01*
X140612857Y-99353523D01*
X140565238Y-99401142D01*
X140517619Y-99496380D01*
X140517619Y-99686857D01*
X140565238Y-99782095D01*
X140612857Y-99829714D01*
X140708095Y-99877333D01*
X141517619Y-99877333D01*
X141517619Y-100210666D02*
X141517619Y-100782095D01*
X140517619Y-100496380D02*
X141517619Y-100496380D01*
X138977619Y-94666666D02*
X137977619Y-95000000D01*
X138977619Y-95333333D01*
X138072857Y-96238095D02*
X138025238Y-96190476D01*
X137977619Y-96047619D01*
X137977619Y-95952380D01*
X138025238Y-95809523D01*
X138120476Y-95714285D01*
X138215714Y-95666666D01*
X138406190Y-95619047D01*
X138549047Y-95619047D01*
X138739523Y-95666666D01*
X138834761Y-95714285D01*
X138930000Y-95809523D01*
X138977619Y-95952380D01*
X138977619Y-96047619D01*
X138930000Y-96190476D01*
X138882380Y-96238095D01*
X138072857Y-97238095D02*
X138025238Y-97190476D01*
X137977619Y-97047619D01*
X137977619Y-96952380D01*
X138025238Y-96809523D01*
X138120476Y-96714285D01*
X138215714Y-96666666D01*
X138406190Y-96619047D01*
X138549047Y-96619047D01*
X138739523Y-96666666D01*
X138834761Y-96714285D01*
X138930000Y-96809523D01*
X138977619Y-96952380D01*
X138977619Y-97047619D01*
X138930000Y-97190476D01*
X138882380Y-97238095D01*
X138930000Y-89238095D02*
X138977619Y-89142857D01*
X138977619Y-89000000D01*
X138930000Y-88857142D01*
X138834761Y-88761904D01*
X138739523Y-88714285D01*
X138549047Y-88666666D01*
X138406190Y-88666666D01*
X138215714Y-88714285D01*
X138120476Y-88761904D01*
X138025238Y-88857142D01*
X137977619Y-89000000D01*
X137977619Y-89095238D01*
X138025238Y-89238095D01*
X138072857Y-89285714D01*
X138406190Y-89285714D01*
X138406190Y-89095238D01*
X137977619Y-89714285D02*
X138977619Y-89714285D01*
X137977619Y-90285714D01*
X138977619Y-90285714D01*
X137977619Y-90761904D02*
X138977619Y-90761904D01*
X138977619Y-91000000D01*
X138930000Y-91142857D01*
X138834761Y-91238095D01*
X138739523Y-91285714D01*
X138549047Y-91333333D01*
X138406190Y-91333333D01*
X138215714Y-91285714D01*
X138120476Y-91238095D01*
X138025238Y-91142857D01*
X137977619Y-91000000D01*
X137977619Y-90761904D01*
X138977619Y-81666666D02*
X137977619Y-82000000D01*
X138977619Y-82333333D01*
X138072857Y-83238095D02*
X138025238Y-83190476D01*
X137977619Y-83047619D01*
X137977619Y-82952380D01*
X138025238Y-82809523D01*
X138120476Y-82714285D01*
X138215714Y-82666666D01*
X138406190Y-82619047D01*
X138549047Y-82619047D01*
X138739523Y-82666666D01*
X138834761Y-82714285D01*
X138930000Y-82809523D01*
X138977619Y-82952380D01*
X138977619Y-83047619D01*
X138930000Y-83190476D01*
X138882380Y-83238095D01*
X138072857Y-84238095D02*
X138025238Y-84190476D01*
X137977619Y-84047619D01*
X137977619Y-83952380D01*
X138025238Y-83809523D01*
X138120476Y-83714285D01*
X138215714Y-83666666D01*
X138406190Y-83619047D01*
X138549047Y-83619047D01*
X138739523Y-83666666D01*
X138834761Y-83714285D01*
X138930000Y-83809523D01*
X138977619Y-83952380D01*
X138977619Y-84047619D01*
X138930000Y-84190476D01*
X138882380Y-84238095D01*
X140517619Y-84431428D02*
X141517619Y-84431428D01*
X140517619Y-84907619D02*
X141517619Y-84907619D01*
X140517619Y-85479047D01*
X141517619Y-85479047D01*
X140517619Y-85955238D02*
X141517619Y-85955238D01*
X141517619Y-86336190D01*
X141470000Y-86431428D01*
X141422380Y-86479047D01*
X141327142Y-86526666D01*
X141184285Y-86526666D01*
X141089047Y-86479047D01*
X141041428Y-86431428D01*
X140993809Y-86336190D01*
X140993809Y-85955238D01*
X141517619Y-86955238D02*
X140708095Y-86955238D01*
X140612857Y-87002857D01*
X140565238Y-87050476D01*
X140517619Y-87145714D01*
X140517619Y-87336190D01*
X140565238Y-87431428D01*
X140612857Y-87479047D01*
X140708095Y-87526666D01*
X141517619Y-87526666D01*
X141517619Y-87860000D02*
X141517619Y-88431428D01*
X140517619Y-88145714D02*
X141517619Y-88145714D01*
D12*
G04 #@! TO.C,F1*
X177220000Y-106210000D02*
X177220000Y-79210000D01*
X168220000Y-106310000D02*
X177220000Y-106210000D01*
X168220000Y-79210000D02*
X168220000Y-106310000D01*
X177220000Y-79210000D02*
X168220000Y-79210000D01*
G04 #@! TO.C,K1*
X164940000Y-106500000D02*
X144940000Y-106500000D01*
X144940000Y-106500000D02*
X144940000Y-91500000D01*
X144940000Y-91500000D02*
X164940000Y-91500000D01*
X164940000Y-91500000D02*
X164940000Y-106500000D01*
G04 #@! TO.C,J2*
X150920000Y-86670000D02*
X152170000Y-86670000D01*
X150920000Y-85420000D02*
X150920000Y-86670000D01*
X156420000Y-79520000D02*
X156420000Y-82570000D01*
X153470000Y-79520000D02*
X156420000Y-79520000D01*
X153470000Y-78770000D02*
X153470000Y-79520000D01*
X156420000Y-85620000D02*
X156420000Y-82570000D01*
X153470000Y-85620000D02*
X156420000Y-85620000D01*
X153470000Y-86370000D02*
X153470000Y-85620000D01*
X151220000Y-78770000D02*
X151220000Y-80570000D01*
X151970000Y-78770000D02*
X151220000Y-78770000D01*
X151970000Y-80570000D02*
X151970000Y-78770000D01*
X151220000Y-80570000D02*
X151970000Y-80570000D01*
X151220000Y-84570000D02*
X151220000Y-86370000D01*
X151970000Y-84570000D02*
X151220000Y-84570000D01*
X151970000Y-86370000D02*
X151970000Y-84570000D01*
X151220000Y-86370000D02*
X151970000Y-86370000D01*
X151220000Y-82070000D02*
X151220000Y-83070000D01*
X151970000Y-82070000D02*
X151220000Y-82070000D01*
X151970000Y-83070000D02*
X151970000Y-82070000D01*
X151220000Y-83070000D02*
X151970000Y-83070000D01*
X151210000Y-78760000D02*
X151210000Y-86380000D01*
X157180000Y-78760000D02*
X151210000Y-78760000D01*
X157180000Y-86380000D02*
X157180000Y-78760000D01*
X151210000Y-86380000D02*
X157180000Y-86380000D01*
G04 #@! TO.C,J1*
X136450000Y-105935000D02*
X136450000Y-79485000D01*
X136450000Y-79485000D02*
X122450000Y-79485000D01*
X122450000Y-79485000D02*
X122450000Y-105935000D01*
X122450000Y-105935000D02*
X136450000Y-105935000D01*
G04 #@! TD*
M02*
