G04 #@! TF.GenerationSoftware,KiCad,Pcbnew,5.1.6-c6e7f7d~87~ubuntu18.04.1*
G04 #@! TF.CreationDate,2020-09-04T14:15:51+09:00*
G04 #@! TF.ProjectId,adamr2_emg_board,6164616d-7232-45f6-956d-675f626f6172,rev?*
G04 #@! TF.SameCoordinates,Original*
G04 #@! TF.FileFunction,Legend,Top*
G04 #@! TF.FilePolarity,Positive*
%FSLAX46Y46*%
G04 Gerber Fmt 4.6, Leading zero omitted, Abs format (unit mm)*
G04 Created by KiCad (PCBNEW 5.1.6-c6e7f7d~87~ubuntu18.04.1) date 2020-09-04 14:15:51*
%MOMM*%
%LPD*%
G01*
G04 APERTURE LIST*
%ADD10C,0.150000*%
%ADD11C,0.200000*%
%ADD12C,0.120000*%
G04 APERTURE END LIST*
D10*
X163361714Y-97083047D02*
X163409333Y-97130666D01*
X163504571Y-97178285D01*
X163790285Y-97178285D01*
X163885523Y-97130666D01*
X163980761Y-97035428D01*
X164028380Y-96940190D01*
X164028380Y-96749714D01*
X163980761Y-96654476D01*
X163885523Y-96559238D01*
X163790285Y-96511619D01*
X163504571Y-96511619D01*
X163409333Y-96559238D01*
X163361714Y-96654476D01*
X163361714Y-96702095D01*
X163409333Y-96797333D01*
X163504571Y-96844952D01*
X164361714Y-96844952D01*
X163028380Y-95606857D02*
X163028380Y-96083047D01*
X163504571Y-96130666D01*
X163456952Y-96083047D01*
X163409333Y-95987809D01*
X163409333Y-95749714D01*
X163456952Y-95654476D01*
X163504571Y-95606857D01*
X163599809Y-95559238D01*
X163837904Y-95559238D01*
X163933142Y-95606857D01*
X163980761Y-95654476D01*
X164028380Y-95749714D01*
X164028380Y-95987809D01*
X163980761Y-96083047D01*
X163933142Y-96130666D01*
X163933142Y-95130666D02*
X163980761Y-95083047D01*
X164028380Y-95130666D01*
X163980761Y-95178285D01*
X163933142Y-95130666D01*
X164028380Y-95130666D01*
X163123619Y-94702095D02*
X163076000Y-94654476D01*
X163028380Y-94559238D01*
X163028380Y-94321142D01*
X163076000Y-94225904D01*
X163123619Y-94178285D01*
X163218857Y-94130666D01*
X163314095Y-94130666D01*
X163456952Y-94178285D01*
X164028380Y-94749714D01*
X164028380Y-94130666D01*
X164028380Y-93797333D02*
X163361714Y-93273523D01*
X163361714Y-93797333D02*
X164028380Y-93273523D01*
X163123619Y-92940190D02*
X163076000Y-92892571D01*
X163028380Y-92797333D01*
X163028380Y-92559238D01*
X163076000Y-92464000D01*
X163123619Y-92416380D01*
X163218857Y-92368761D01*
X163314095Y-92368761D01*
X163456952Y-92416380D01*
X164028380Y-92987809D01*
X164028380Y-92368761D01*
X163028380Y-91749714D02*
X163028380Y-91654476D01*
X163076000Y-91559238D01*
X163123619Y-91511619D01*
X163218857Y-91464000D01*
X163409333Y-91416380D01*
X163647428Y-91416380D01*
X163837904Y-91464000D01*
X163933142Y-91511619D01*
X163980761Y-91559238D01*
X164028380Y-91654476D01*
X164028380Y-91749714D01*
X163980761Y-91844952D01*
X163933142Y-91892571D01*
X163837904Y-91940190D01*
X163647428Y-91987809D01*
X163409333Y-91987809D01*
X163218857Y-91940190D01*
X163123619Y-91892571D01*
X163076000Y-91844952D01*
X163028380Y-91749714D01*
X164028380Y-90987809D02*
X163361714Y-90987809D01*
X163456952Y-90987809D02*
X163409333Y-90940190D01*
X163361714Y-90844952D01*
X163361714Y-90702095D01*
X163409333Y-90606857D01*
X163504571Y-90559238D01*
X164028380Y-90559238D01*
X163504571Y-90559238D02*
X163409333Y-90511619D01*
X163361714Y-90416380D01*
X163361714Y-90273523D01*
X163409333Y-90178285D01*
X163504571Y-90130666D01*
X164028380Y-90130666D01*
X164028380Y-89654476D02*
X163361714Y-89654476D01*
X163456952Y-89654476D02*
X163409333Y-89606857D01*
X163361714Y-89511619D01*
X163361714Y-89368761D01*
X163409333Y-89273523D01*
X163504571Y-89225904D01*
X164028380Y-89225904D01*
X163504571Y-89225904D02*
X163409333Y-89178285D01*
X163361714Y-89083047D01*
X163361714Y-88940190D01*
X163409333Y-88844952D01*
X163504571Y-88797333D01*
X164028380Y-88797333D01*
X140311428Y-90368380D02*
X140311428Y-89368380D01*
X140787619Y-90368380D02*
X140787619Y-89368380D01*
X141359047Y-90368380D01*
X141359047Y-89368380D01*
X141835238Y-90368380D02*
X141835238Y-89368380D01*
X142216190Y-89368380D01*
X142311428Y-89416000D01*
X142359047Y-89463619D01*
X142406666Y-89558857D01*
X142406666Y-89701714D01*
X142359047Y-89796952D01*
X142311428Y-89844571D01*
X142216190Y-89892190D01*
X141835238Y-89892190D01*
X142835238Y-89368380D02*
X142835238Y-90177904D01*
X142882857Y-90273142D01*
X142930476Y-90320761D01*
X143025714Y-90368380D01*
X143216190Y-90368380D01*
X143311428Y-90320761D01*
X143359047Y-90273142D01*
X143406666Y-90177904D01*
X143406666Y-89368380D01*
X143740000Y-89368380D02*
X144311428Y-89368380D01*
X144025714Y-90368380D02*
X144025714Y-89368380D01*
X145415047Y-88971428D02*
X146176952Y-88971428D01*
X145796000Y-89352380D02*
X145796000Y-88590476D01*
X138303047Y-88971428D02*
X139064952Y-88971428D01*
X127135238Y-89368380D02*
X127325714Y-89368380D01*
X127420952Y-89416000D01*
X127516190Y-89511238D01*
X127563809Y-89701714D01*
X127563809Y-90035047D01*
X127516190Y-90225523D01*
X127420952Y-90320761D01*
X127325714Y-90368380D01*
X127135238Y-90368380D01*
X127040000Y-90320761D01*
X126944761Y-90225523D01*
X126897142Y-90035047D01*
X126897142Y-89701714D01*
X126944761Y-89511238D01*
X127040000Y-89416000D01*
X127135238Y-89368380D01*
X127992380Y-89368380D02*
X127992380Y-90177904D01*
X128040000Y-90273142D01*
X128087619Y-90320761D01*
X128182857Y-90368380D01*
X128373333Y-90368380D01*
X128468571Y-90320761D01*
X128516190Y-90273142D01*
X128563809Y-90177904D01*
X128563809Y-89368380D01*
X128897142Y-89368380D02*
X129468571Y-89368380D01*
X129182857Y-90368380D02*
X129182857Y-89368380D01*
X129801904Y-90368380D02*
X129801904Y-89368380D01*
X130182857Y-89368380D01*
X130278095Y-89416000D01*
X130325714Y-89463619D01*
X130373333Y-89558857D01*
X130373333Y-89701714D01*
X130325714Y-89796952D01*
X130278095Y-89844571D01*
X130182857Y-89892190D01*
X129801904Y-89892190D01*
X130801904Y-89368380D02*
X130801904Y-90177904D01*
X130849523Y-90273142D01*
X130897142Y-90320761D01*
X130992380Y-90368380D01*
X131182857Y-90368380D01*
X131278095Y-90320761D01*
X131325714Y-90273142D01*
X131373333Y-90177904D01*
X131373333Y-89368380D01*
X131706666Y-89368380D02*
X132278095Y-89368380D01*
X131992380Y-90368380D02*
X131992380Y-89368380D01*
X125603047Y-88971428D02*
X126364952Y-88971428D01*
X132715047Y-88971428D02*
X133476952Y-88971428D01*
X133096000Y-89352380D02*
X133096000Y-88590476D01*
D11*
X123883523Y-110765095D02*
X123883523Y-109465095D01*
X124626380Y-110765095D01*
X124626380Y-109465095D01*
X125245428Y-110641285D02*
X125307333Y-110703190D01*
X125245428Y-110765095D01*
X125183523Y-110703190D01*
X125245428Y-110641285D01*
X125245428Y-110765095D01*
X125864476Y-110765095D02*
X125864476Y-109465095D01*
X126483523Y-110641285D02*
X126545428Y-110703190D01*
X126483523Y-110765095D01*
X126421619Y-110703190D01*
X126483523Y-110641285D01*
X126483523Y-110765095D01*
X126916857Y-109465095D02*
X127659714Y-109465095D01*
X127288285Y-110765095D02*
X127288285Y-109465095D01*
X128093047Y-110641285D02*
X128154952Y-110703190D01*
X128093047Y-110765095D01*
X128031142Y-110703190D01*
X128093047Y-110641285D01*
X128093047Y-110765095D01*
X128712095Y-110765095D02*
X128712095Y-109465095D01*
X129331142Y-110641285D02*
X129393047Y-110703190D01*
X129331142Y-110765095D01*
X129269238Y-110703190D01*
X129331142Y-110641285D01*
X129331142Y-110765095D01*
X130693047Y-110641285D02*
X130631142Y-110703190D01*
X130445428Y-110765095D01*
X130321619Y-110765095D01*
X130135904Y-110703190D01*
X130012095Y-110579380D01*
X129950190Y-110455571D01*
X129888285Y-110207952D01*
X129888285Y-110022238D01*
X129950190Y-109774619D01*
X130012095Y-109650809D01*
X130135904Y-109527000D01*
X130321619Y-109465095D01*
X130445428Y-109465095D01*
X130631142Y-109527000D01*
X130693047Y-109588904D01*
X131250190Y-110641285D02*
X131312095Y-110703190D01*
X131250190Y-110765095D01*
X131188285Y-110703190D01*
X131250190Y-110641285D01*
X131250190Y-110765095D01*
X133293047Y-110084142D02*
X132859714Y-110084142D01*
X132859714Y-110765095D02*
X132859714Y-109465095D01*
X133478761Y-109465095D01*
X134345428Y-109465095D02*
X134345428Y-110393666D01*
X134283523Y-110579380D01*
X134159714Y-110703190D01*
X133974000Y-110765095D01*
X133850190Y-110765095D01*
X134840666Y-109465095D02*
X135150190Y-110765095D01*
X135397809Y-109836523D01*
X135645428Y-110765095D01*
X135954952Y-109465095D01*
X137193047Y-110765095D02*
X136759714Y-110146047D01*
X136450190Y-110765095D02*
X136450190Y-109465095D01*
X136945428Y-109465095D01*
X137069238Y-109527000D01*
X137131142Y-109588904D01*
X137193047Y-109712714D01*
X137193047Y-109898428D01*
X137131142Y-110022238D01*
X137069238Y-110084142D01*
X136945428Y-110146047D01*
X136450190Y-110146047D01*
X139359714Y-110765095D02*
X138740666Y-110765095D01*
X138740666Y-109465095D01*
X140350190Y-110765095D02*
X140350190Y-110084142D01*
X140288285Y-109960333D01*
X140164476Y-109898428D01*
X139916857Y-109898428D01*
X139793047Y-109960333D01*
X140350190Y-110703190D02*
X140226380Y-110765095D01*
X139916857Y-110765095D01*
X139793047Y-110703190D01*
X139731142Y-110579380D01*
X139731142Y-110455571D01*
X139793047Y-110331761D01*
X139916857Y-110269857D01*
X140226380Y-110269857D01*
X140350190Y-110207952D01*
X140969238Y-110765095D02*
X140969238Y-109465095D01*
X140969238Y-109960333D02*
X141093047Y-109898428D01*
X141340666Y-109898428D01*
X141464476Y-109960333D01*
X141526380Y-110022238D01*
X141588285Y-110146047D01*
X141588285Y-110517476D01*
X141526380Y-110641285D01*
X141464476Y-110703190D01*
X141340666Y-110765095D01*
X141093047Y-110765095D01*
X140969238Y-110703190D01*
X142145428Y-110641285D02*
X142207333Y-110703190D01*
X142145428Y-110765095D01*
X142083523Y-110703190D01*
X142145428Y-110641285D01*
X142145428Y-110765095D01*
X123821619Y-112543666D02*
X124440666Y-112543666D01*
X123697809Y-112915095D02*
X124131142Y-111615095D01*
X124564476Y-112915095D01*
X124997809Y-112915095D02*
X124997809Y-111615095D01*
X125307333Y-111615095D01*
X125493047Y-111677000D01*
X125616857Y-111800809D01*
X125678761Y-111924619D01*
X125740666Y-112172238D01*
X125740666Y-112357952D01*
X125678761Y-112605571D01*
X125616857Y-112729380D01*
X125493047Y-112853190D01*
X125307333Y-112915095D01*
X124997809Y-112915095D01*
X126235904Y-112543666D02*
X126854952Y-112543666D01*
X126112095Y-112915095D02*
X126545428Y-111615095D01*
X126978761Y-112915095D01*
X127412095Y-112915095D02*
X127412095Y-111615095D01*
X127845428Y-112543666D01*
X128278761Y-111615095D01*
X128278761Y-112915095D01*
X129640666Y-112915095D02*
X129207333Y-112296047D01*
X128897809Y-112915095D02*
X128897809Y-111615095D01*
X129393047Y-111615095D01*
X129516857Y-111677000D01*
X129578761Y-111738904D01*
X129640666Y-111862714D01*
X129640666Y-112048428D01*
X129578761Y-112172238D01*
X129516857Y-112234142D01*
X129393047Y-112296047D01*
X128897809Y-112296047D01*
X130135904Y-111738904D02*
X130197809Y-111677000D01*
X130321619Y-111615095D01*
X130631142Y-111615095D01*
X130754952Y-111677000D01*
X130816857Y-111738904D01*
X130878761Y-111862714D01*
X130878761Y-111986523D01*
X130816857Y-112172238D01*
X130074000Y-112915095D01*
X130878761Y-112915095D01*
X132426380Y-112915095D02*
X132426380Y-111615095D01*
X132921619Y-111615095D01*
X133045428Y-111677000D01*
X133107333Y-111738904D01*
X133169238Y-111862714D01*
X133169238Y-112048428D01*
X133107333Y-112172238D01*
X133045428Y-112234142D01*
X132921619Y-112296047D01*
X132426380Y-112296047D01*
X133726380Y-112915095D02*
X133726380Y-112048428D01*
X133726380Y-112296047D02*
X133788285Y-112172238D01*
X133850190Y-112110333D01*
X133974000Y-112048428D01*
X134097809Y-112048428D01*
X134716857Y-112915095D02*
X134593047Y-112853190D01*
X134531142Y-112791285D01*
X134469238Y-112667476D01*
X134469238Y-112296047D01*
X134531142Y-112172238D01*
X134593047Y-112110333D01*
X134716857Y-112048428D01*
X134902571Y-112048428D01*
X135026380Y-112110333D01*
X135088285Y-112172238D01*
X135150190Y-112296047D01*
X135150190Y-112667476D01*
X135088285Y-112791285D01*
X135026380Y-112853190D01*
X134902571Y-112915095D01*
X134716857Y-112915095D01*
X135707333Y-112048428D02*
X135707333Y-113162714D01*
X135645428Y-113286523D01*
X135521619Y-113348428D01*
X135459714Y-113348428D01*
X135707333Y-111615095D02*
X135645428Y-111677000D01*
X135707333Y-111738904D01*
X135769238Y-111677000D01*
X135707333Y-111615095D01*
X135707333Y-111738904D01*
X136821619Y-112853190D02*
X136697809Y-112915095D01*
X136450190Y-112915095D01*
X136326380Y-112853190D01*
X136264476Y-112729380D01*
X136264476Y-112234142D01*
X136326380Y-112110333D01*
X136450190Y-112048428D01*
X136697809Y-112048428D01*
X136821619Y-112110333D01*
X136883523Y-112234142D01*
X136883523Y-112357952D01*
X136264476Y-112481761D01*
X137997809Y-112853190D02*
X137874000Y-112915095D01*
X137626380Y-112915095D01*
X137502571Y-112853190D01*
X137440666Y-112791285D01*
X137378761Y-112667476D01*
X137378761Y-112296047D01*
X137440666Y-112172238D01*
X137502571Y-112110333D01*
X137626380Y-112048428D01*
X137874000Y-112048428D01*
X137997809Y-112110333D01*
X138369238Y-112048428D02*
X138864476Y-112048428D01*
X138554952Y-111615095D02*
X138554952Y-112729380D01*
X138616857Y-112853190D01*
X138740666Y-112915095D01*
X138864476Y-112915095D01*
D10*
X138977619Y-81666666D02*
X137977619Y-82000000D01*
X138977619Y-82333333D01*
X138072857Y-83238095D02*
X138025238Y-83190476D01*
X137977619Y-83047619D01*
X137977619Y-82952380D01*
X138025238Y-82809523D01*
X138120476Y-82714285D01*
X138215714Y-82666666D01*
X138406190Y-82619047D01*
X138549047Y-82619047D01*
X138739523Y-82666666D01*
X138834761Y-82714285D01*
X138930000Y-82809523D01*
X138977619Y-82952380D01*
X138977619Y-83047619D01*
X138930000Y-83190476D01*
X138882380Y-83238095D01*
X138072857Y-84238095D02*
X138025238Y-84190476D01*
X137977619Y-84047619D01*
X137977619Y-83952380D01*
X138025238Y-83809523D01*
X138120476Y-83714285D01*
X138215714Y-83666666D01*
X138406190Y-83619047D01*
X138549047Y-83619047D01*
X138739523Y-83666666D01*
X138834761Y-83714285D01*
X138930000Y-83809523D01*
X138977619Y-83952380D01*
X138977619Y-84047619D01*
X138930000Y-84190476D01*
X138882380Y-84238095D01*
D12*
G04 #@! TO.C,C1*
X137032000Y-99060000D02*
G75*
G03*
X137032000Y-99060000I-8000000J0D01*
G01*
G04 #@! TO.C,F1*
X173410000Y-79210000D02*
X164410000Y-79210000D01*
X164410000Y-79210000D02*
X164410000Y-106310000D01*
X164410000Y-106310000D02*
X173410000Y-106210000D01*
X173410000Y-106210000D02*
X173410000Y-79210000D01*
G04 #@! TO.C,K1*
X158630000Y-111600000D02*
X143630000Y-111600000D01*
X158630000Y-91600000D02*
X158630000Y-111600000D01*
X143630000Y-91600000D02*
X158630000Y-91600000D01*
X143630000Y-111600000D02*
X143630000Y-91600000D01*
G04 #@! TO.C,J2*
X153650000Y-80090000D02*
X153650000Y-86060000D01*
X153650000Y-86060000D02*
X161270000Y-86060000D01*
X161270000Y-86060000D02*
X161270000Y-80090000D01*
X161270000Y-80090000D02*
X153650000Y-80090000D01*
X156960000Y-80100000D02*
X156960000Y-80850000D01*
X156960000Y-80850000D02*
X157960000Y-80850000D01*
X157960000Y-80850000D02*
X157960000Y-80100000D01*
X157960000Y-80100000D02*
X156960000Y-80100000D01*
X153660000Y-80100000D02*
X153660000Y-80850000D01*
X153660000Y-80850000D02*
X155460000Y-80850000D01*
X155460000Y-80850000D02*
X155460000Y-80100000D01*
X155460000Y-80100000D02*
X153660000Y-80100000D01*
X159460000Y-80100000D02*
X159460000Y-80850000D01*
X159460000Y-80850000D02*
X161260000Y-80850000D01*
X161260000Y-80850000D02*
X161260000Y-80100000D01*
X161260000Y-80100000D02*
X159460000Y-80100000D01*
X153660000Y-82350000D02*
X154410000Y-82350000D01*
X154410000Y-82350000D02*
X154410000Y-85300000D01*
X154410000Y-85300000D02*
X157460000Y-85300000D01*
X161260000Y-82350000D02*
X160510000Y-82350000D01*
X160510000Y-82350000D02*
X160510000Y-85300000D01*
X160510000Y-85300000D02*
X157460000Y-85300000D01*
X154610000Y-79800000D02*
X153360000Y-79800000D01*
X153360000Y-79800000D02*
X153360000Y-81050000D01*
G04 #@! TO.C,J1*
X122775000Y-73100000D02*
X122775000Y-87100000D01*
X149225000Y-73100000D02*
X122775000Y-73100000D01*
X149225000Y-87100000D02*
X149225000Y-73100000D01*
X122775000Y-87100000D02*
X149225000Y-87100000D01*
G04 #@! TO.C,C1*
D10*
X128865333Y-98917142D02*
X128817714Y-98964761D01*
X128674857Y-99012380D01*
X128579619Y-99012380D01*
X128436761Y-98964761D01*
X128341523Y-98869523D01*
X128293904Y-98774285D01*
X128246285Y-98583809D01*
X128246285Y-98440952D01*
X128293904Y-98250476D01*
X128341523Y-98155238D01*
X128436761Y-98060000D01*
X128579619Y-98012380D01*
X128674857Y-98012380D01*
X128817714Y-98060000D01*
X128865333Y-98107619D01*
X129817714Y-99012380D02*
X129246285Y-99012380D01*
X129532000Y-99012380D02*
X129532000Y-98012380D01*
X129436761Y-98155238D01*
X129341523Y-98250476D01*
X129246285Y-98298095D01*
X124651047Y-96631428D02*
X125412952Y-96631428D01*
X132401047Y-96631428D02*
X133162952Y-96631428D01*
X132782000Y-97012380D02*
X132782000Y-96250476D01*
G04 #@! TO.C,F1*
X161980571Y-93297333D02*
X161980571Y-93630666D01*
X162504380Y-93630666D02*
X161504380Y-93630666D01*
X161504380Y-93154476D01*
X162504380Y-92249714D02*
X162504380Y-92821142D01*
X162504380Y-92535428D02*
X161504380Y-92535428D01*
X161647238Y-92630666D01*
X161742476Y-92725904D01*
X161790095Y-92821142D01*
G04 #@! TO.C,K1*
X160472380Y-102338095D02*
X159472380Y-102338095D01*
X160472380Y-101766666D02*
X159900952Y-102195238D01*
X159472380Y-101766666D02*
X160043809Y-102338095D01*
X160472380Y-100814285D02*
X160472380Y-101385714D01*
X160472380Y-101100000D02*
X159472380Y-101100000D01*
X159615238Y-101195238D01*
X159710476Y-101290476D01*
X159758095Y-101385714D01*
G04 #@! TO.C,J2*
X157126666Y-78452380D02*
X157126666Y-79166666D01*
X157079047Y-79309523D01*
X156983809Y-79404761D01*
X156840952Y-79452380D01*
X156745714Y-79452380D01*
X157555238Y-78547619D02*
X157602857Y-78500000D01*
X157698095Y-78452380D01*
X157936190Y-78452380D01*
X158031428Y-78500000D01*
X158079047Y-78547619D01*
X158126666Y-78642857D01*
X158126666Y-78738095D01*
X158079047Y-78880952D01*
X157507619Y-79452380D01*
X158126666Y-79452380D01*
G04 #@! TO.C,J1*
X135666666Y-87336380D02*
X135666666Y-88050666D01*
X135619047Y-88193523D01*
X135523809Y-88288761D01*
X135380952Y-88336380D01*
X135285714Y-88336380D01*
X136666666Y-88336380D02*
X136095238Y-88336380D01*
X136380952Y-88336380D02*
X136380952Y-87336380D01*
X136285714Y-87479238D01*
X136190476Y-87574476D01*
X136095238Y-87622095D01*
G04 #@! TD*
M02*
