M48
; DRILL file {KiCad 5.1.6-c6e7f7d~87~ubuntu18.04.1} date Fri Sep  4 14:15:55 2020
; FORMAT={-:-/ absolute / metric / decimal}
; #@! TF.CreationDate,2020-09-04T14:15:55+09:00
; #@! TF.GenerationSoftware,Kicad,Pcbnew,5.1.6-c6e7f7d~87~ubuntu18.04.1
FMAT,2
METRIC
T1C0.400
T2C1.000
T3C1.100
T4C1.200
T5C1.300
T6C1.600
T7C3.200
%
G90
G05
T1
X119.888Y-83.82
X119.888Y-93.98
X119.888Y-104.14
X126.492Y-75.692
X127.0Y-110.744
X137.16Y-110.744
X139.192Y-75.692
X151.384Y-100.076
X152.908Y-90.932
X162.56Y-95.504
X172.212Y-95.504
T2
X156.21Y-82.55
X158.71Y-82.55
T3
X146.05Y-92.71
X146.05Y-102.87
X146.05Y-110.49
X156.21Y-92.71
T4
X125.032Y-99.06
X132.782Y-99.06
T5
X168.91Y-82.71
X168.91Y-102.71
T6
X126.475Y-84.0
X132.825Y-84.0
X139.175Y-84.0
X145.525Y-84.0
T7
X168.91Y-92.71
X171.0Y-75.0
X119.0Y-111.0
X171.0Y-111.0
X119.0Y-75.0
T0
M30
