G04 #@! TF.GenerationSoftware,KiCad,Pcbnew,5.1.6-c6e7f7d~87~ubuntu18.04.1*
G04 #@! TF.CreationDate,2020-09-04T14:15:51+09:00*
G04 #@! TF.ProjectId,adamr2_emg_board,6164616d-7232-45f6-956d-675f626f6172,rev?*
G04 #@! TF.SameCoordinates,Original*
G04 #@! TF.FileFunction,Copper,L1,Top*
G04 #@! TF.FilePolarity,Positive*
%FSLAX46Y46*%
G04 Gerber Fmt 4.6, Leading zero omitted, Abs format (unit mm)*
G04 Created by KiCad (PCBNEW 5.1.6-c6e7f7d~87~ubuntu18.04.1) date 2020-09-04 14:15:51*
%MOMM*%
%LPD*%
G01*
G04 APERTURE LIST*
G04 #@! TA.AperFunction,ComponentPad*
%ADD10C,2.400000*%
G04 #@! TD*
G04 #@! TA.AperFunction,ComponentPad*
%ADD11R,2.400000X2.400000*%
G04 #@! TD*
G04 #@! TA.AperFunction,ComponentPad*
%ADD12O,5.000000X2.500000*%
G04 #@! TD*
G04 #@! TA.AperFunction,ComponentPad*
%ADD13C,2.100000*%
G04 #@! TD*
G04 #@! TA.AperFunction,ComponentPad*
%ADD14R,2.100000X2.100000*%
G04 #@! TD*
G04 #@! TA.AperFunction,ComponentPad*
%ADD15O,1.700000X2.000000*%
G04 #@! TD*
G04 #@! TA.AperFunction,ComponentPad*
%ADD16O,3.500000X7.000000*%
G04 #@! TD*
G04 #@! TA.AperFunction,ViaPad*
%ADD17C,0.800000*%
G04 #@! TD*
G04 #@! TA.AperFunction,Conductor*
%ADD18C,1.000000*%
G04 #@! TD*
G04 #@! TA.AperFunction,Conductor*
%ADD19C,0.254000*%
G04 #@! TD*
G04 APERTURE END LIST*
D10*
G04 #@! TO.P,C1,2*
G04 #@! TO.N,GND*
X125032000Y-99060000D03*
D11*
G04 #@! TO.P,C1,1*
G04 #@! TO.N,Net-(C1-Pad1)*
X132782000Y-99060000D03*
G04 #@! TD*
D12*
G04 #@! TO.P,F1,2*
G04 #@! TO.N,Net-(F1-Pad2)*
X168910000Y-102710000D03*
G04 #@! TO.P,F1,1*
G04 #@! TO.N,VCC*
X168910000Y-82710000D03*
G04 #@! TD*
D13*
G04 #@! TO.P,K1,8*
G04 #@! TO.N,Net-(J2-Pad1)*
X156210000Y-92710000D03*
G04 #@! TO.P,K1,4*
G04 #@! TO.N,Net-(F1-Pad2)*
X146050000Y-110490000D03*
G04 #@! TO.P,K1,3*
G04 #@! TO.N,Net-(C1-Pad1)*
X146050000Y-102870000D03*
D14*
G04 #@! TO.P,K1,1*
G04 #@! TO.N,GND*
X146050000Y-92710000D03*
G04 #@! TD*
D15*
G04 #@! TO.P,J2,2*
G04 #@! TO.N,VCC*
X158710000Y-82550000D03*
G04 #@! TO.P,J2,1*
G04 #@! TO.N,Net-(J2-Pad1)*
G04 #@! TA.AperFunction,ComponentPad*
G36*
G01*
X155360000Y-83300000D02*
X155360000Y-81800000D01*
G75*
G02*
X155610000Y-81550000I250000J0D01*
G01*
X156810000Y-81550000D01*
G75*
G02*
X157060000Y-81800000I0J-250000D01*
G01*
X157060000Y-83300000D01*
G75*
G02*
X156810000Y-83550000I-250000J0D01*
G01*
X155610000Y-83550000D01*
G75*
G02*
X155360000Y-83300000I0J250000D01*
G01*
G37*
G04 #@! TD.AperFunction*
G04 #@! TD*
D16*
G04 #@! TO.P,J1,1*
G04 #@! TO.N,GND*
X126475000Y-84000000D03*
G04 #@! TO.P,J1,2*
G04 #@! TO.N,Net-(C1-Pad1)*
X132825000Y-84000000D03*
G04 #@! TO.P,J1,3*
G04 #@! TO.N,GND*
X139175000Y-84000000D03*
G04 #@! TO.P,J1,4*
G04 #@! TO.N,VCC*
X145525000Y-84000000D03*
G04 #@! TD*
D17*
G04 #@! TO.N,GND*
X151384000Y-100076000D03*
X152908000Y-90932000D03*
X139192000Y-75692000D03*
X126492000Y-75692000D03*
X119888000Y-83820000D03*
X119888000Y-93980000D03*
X119888000Y-104140000D03*
X127000000Y-110744000D03*
X137160000Y-110744000D03*
X162560000Y-95504000D03*
X172212000Y-95504000D03*
G04 #@! TD*
D18*
G04 #@! TO.N,VCC*
X168750000Y-82550000D02*
X168910000Y-82710000D01*
G04 #@! TO.N,Net-(J2-Pad1)*
X156210000Y-82550000D02*
X156210000Y-92710000D01*
G04 #@! TD*
D19*
G04 #@! TO.N,Net-(C1-Pad1)*
G36*
X136017000Y-80312127D02*
G01*
X136017000Y-91440000D01*
X136019440Y-91464776D01*
X136026667Y-91488601D01*
X136038403Y-91510557D01*
X136054197Y-91529803D01*
X142150197Y-97625803D01*
X142169443Y-97641597D01*
X142191399Y-97653333D01*
X142215224Y-97660560D01*
X142240000Y-97663000D01*
X147267394Y-97663000D01*
X148717000Y-99112606D01*
X148717000Y-104595394D01*
X147267394Y-106045000D01*
X132640606Y-106045000D01*
X130636672Y-104041066D01*
X145058539Y-104041066D01*
X145160339Y-104310579D01*
X145458477Y-104456463D01*
X145779346Y-104541380D01*
X146110617Y-104562066D01*
X146439557Y-104517728D01*
X146753527Y-104410069D01*
X146939661Y-104310579D01*
X147041461Y-104041066D01*
X146050000Y-103049605D01*
X145058539Y-104041066D01*
X130636672Y-104041066D01*
X129667000Y-103071394D01*
X129667000Y-102930617D01*
X144357934Y-102930617D01*
X144402272Y-103259557D01*
X144509931Y-103573527D01*
X144609421Y-103759661D01*
X144878934Y-103861461D01*
X145870395Y-102870000D01*
X146229605Y-102870000D01*
X147221066Y-103861461D01*
X147490579Y-103759661D01*
X147636463Y-103461523D01*
X147721380Y-103140654D01*
X147742066Y-102809383D01*
X147697728Y-102480443D01*
X147590069Y-102166473D01*
X147490579Y-101980339D01*
X147221066Y-101878539D01*
X146229605Y-102870000D01*
X145870395Y-102870000D01*
X144878934Y-101878539D01*
X144609421Y-101980339D01*
X144463537Y-102278477D01*
X144378620Y-102599346D01*
X144357934Y-102930617D01*
X129667000Y-102930617D01*
X129667000Y-101698934D01*
X145058539Y-101698934D01*
X146050000Y-102690395D01*
X147041461Y-101698934D01*
X146939661Y-101429421D01*
X146641523Y-101283537D01*
X146320654Y-101198620D01*
X145989383Y-101177934D01*
X145660443Y-101222272D01*
X145346473Y-101329931D01*
X145160339Y-101429421D01*
X145058539Y-101698934D01*
X129667000Y-101698934D01*
X129667000Y-100260000D01*
X130943928Y-100260000D01*
X130956188Y-100384482D01*
X130992498Y-100504180D01*
X131051463Y-100614494D01*
X131130815Y-100711185D01*
X131227506Y-100790537D01*
X131337820Y-100849502D01*
X131457518Y-100885812D01*
X131582000Y-100898072D01*
X132496250Y-100895000D01*
X132655000Y-100736250D01*
X132655000Y-99187000D01*
X132909000Y-99187000D01*
X132909000Y-100736250D01*
X133067750Y-100895000D01*
X133982000Y-100898072D01*
X134106482Y-100885812D01*
X134226180Y-100849502D01*
X134336494Y-100790537D01*
X134433185Y-100711185D01*
X134512537Y-100614494D01*
X134571502Y-100504180D01*
X134607812Y-100384482D01*
X134620072Y-100260000D01*
X134617000Y-99345750D01*
X134458250Y-99187000D01*
X132909000Y-99187000D01*
X132655000Y-99187000D01*
X131105750Y-99187000D01*
X130947000Y-99345750D01*
X130943928Y-100260000D01*
X129667000Y-100260000D01*
X129667000Y-97860000D01*
X130943928Y-97860000D01*
X130947000Y-98774250D01*
X131105750Y-98933000D01*
X132655000Y-98933000D01*
X132655000Y-97383750D01*
X132909000Y-97383750D01*
X132909000Y-98933000D01*
X134458250Y-98933000D01*
X134617000Y-98774250D01*
X134620072Y-97860000D01*
X134607812Y-97735518D01*
X134571502Y-97615820D01*
X134512537Y-97505506D01*
X134433185Y-97408815D01*
X134336494Y-97329463D01*
X134226180Y-97270498D01*
X134106482Y-97234188D01*
X133982000Y-97221928D01*
X133067750Y-97225000D01*
X132909000Y-97383750D01*
X132655000Y-97383750D01*
X132496250Y-97225000D01*
X131582000Y-97221928D01*
X131457518Y-97234188D01*
X131337820Y-97270498D01*
X131227506Y-97329463D01*
X131130815Y-97408815D01*
X131051463Y-97505506D01*
X130992498Y-97615820D01*
X130956188Y-97735518D01*
X130943928Y-97860000D01*
X129667000Y-97860000D01*
X129667000Y-84127000D01*
X130440000Y-84127000D01*
X130440000Y-85877000D01*
X130510604Y-86339850D01*
X130670148Y-86780032D01*
X130912502Y-87180631D01*
X131228352Y-87526252D01*
X131605561Y-87803612D01*
X132029632Y-88002053D01*
X132326997Y-88082427D01*
X132698000Y-87972625D01*
X132698000Y-84127000D01*
X132952000Y-84127000D01*
X132952000Y-87972625D01*
X133323003Y-88082427D01*
X133620368Y-88002053D01*
X134044439Y-87803612D01*
X134421648Y-87526252D01*
X134737498Y-87180631D01*
X134979852Y-86780032D01*
X135139396Y-86339850D01*
X135210000Y-85877000D01*
X135210000Y-84127000D01*
X132952000Y-84127000D01*
X132698000Y-84127000D01*
X130440000Y-84127000D01*
X129667000Y-84127000D01*
X129667000Y-82123000D01*
X130440000Y-82123000D01*
X130440000Y-83873000D01*
X132698000Y-83873000D01*
X132698000Y-80027375D01*
X132952000Y-80027375D01*
X132952000Y-83873000D01*
X135210000Y-83873000D01*
X135210000Y-82123000D01*
X135139396Y-81660150D01*
X134979852Y-81219968D01*
X134737498Y-80819369D01*
X134421648Y-80473748D01*
X134044439Y-80196388D01*
X133620368Y-79997947D01*
X133323003Y-79917573D01*
X132952000Y-80027375D01*
X132698000Y-80027375D01*
X132326997Y-79917573D01*
X132029632Y-79997947D01*
X131605561Y-80196388D01*
X131228352Y-80473748D01*
X130912502Y-80819369D01*
X130670148Y-81219968D01*
X130510604Y-81660150D01*
X130440000Y-82123000D01*
X129667000Y-82123000D01*
X129667000Y-80312127D01*
X130613199Y-79242946D01*
X135070801Y-79242946D01*
X136017000Y-80312127D01*
G37*
X136017000Y-80312127D02*
X136017000Y-91440000D01*
X136019440Y-91464776D01*
X136026667Y-91488601D01*
X136038403Y-91510557D01*
X136054197Y-91529803D01*
X142150197Y-97625803D01*
X142169443Y-97641597D01*
X142191399Y-97653333D01*
X142215224Y-97660560D01*
X142240000Y-97663000D01*
X147267394Y-97663000D01*
X148717000Y-99112606D01*
X148717000Y-104595394D01*
X147267394Y-106045000D01*
X132640606Y-106045000D01*
X130636672Y-104041066D01*
X145058539Y-104041066D01*
X145160339Y-104310579D01*
X145458477Y-104456463D01*
X145779346Y-104541380D01*
X146110617Y-104562066D01*
X146439557Y-104517728D01*
X146753527Y-104410069D01*
X146939661Y-104310579D01*
X147041461Y-104041066D01*
X146050000Y-103049605D01*
X145058539Y-104041066D01*
X130636672Y-104041066D01*
X129667000Y-103071394D01*
X129667000Y-102930617D01*
X144357934Y-102930617D01*
X144402272Y-103259557D01*
X144509931Y-103573527D01*
X144609421Y-103759661D01*
X144878934Y-103861461D01*
X145870395Y-102870000D01*
X146229605Y-102870000D01*
X147221066Y-103861461D01*
X147490579Y-103759661D01*
X147636463Y-103461523D01*
X147721380Y-103140654D01*
X147742066Y-102809383D01*
X147697728Y-102480443D01*
X147590069Y-102166473D01*
X147490579Y-101980339D01*
X147221066Y-101878539D01*
X146229605Y-102870000D01*
X145870395Y-102870000D01*
X144878934Y-101878539D01*
X144609421Y-101980339D01*
X144463537Y-102278477D01*
X144378620Y-102599346D01*
X144357934Y-102930617D01*
X129667000Y-102930617D01*
X129667000Y-101698934D01*
X145058539Y-101698934D01*
X146050000Y-102690395D01*
X147041461Y-101698934D01*
X146939661Y-101429421D01*
X146641523Y-101283537D01*
X146320654Y-101198620D01*
X145989383Y-101177934D01*
X145660443Y-101222272D01*
X145346473Y-101329931D01*
X145160339Y-101429421D01*
X145058539Y-101698934D01*
X129667000Y-101698934D01*
X129667000Y-100260000D01*
X130943928Y-100260000D01*
X130956188Y-100384482D01*
X130992498Y-100504180D01*
X131051463Y-100614494D01*
X131130815Y-100711185D01*
X131227506Y-100790537D01*
X131337820Y-100849502D01*
X131457518Y-100885812D01*
X131582000Y-100898072D01*
X132496250Y-100895000D01*
X132655000Y-100736250D01*
X132655000Y-99187000D01*
X132909000Y-99187000D01*
X132909000Y-100736250D01*
X133067750Y-100895000D01*
X133982000Y-100898072D01*
X134106482Y-100885812D01*
X134226180Y-100849502D01*
X134336494Y-100790537D01*
X134433185Y-100711185D01*
X134512537Y-100614494D01*
X134571502Y-100504180D01*
X134607812Y-100384482D01*
X134620072Y-100260000D01*
X134617000Y-99345750D01*
X134458250Y-99187000D01*
X132909000Y-99187000D01*
X132655000Y-99187000D01*
X131105750Y-99187000D01*
X130947000Y-99345750D01*
X130943928Y-100260000D01*
X129667000Y-100260000D01*
X129667000Y-97860000D01*
X130943928Y-97860000D01*
X130947000Y-98774250D01*
X131105750Y-98933000D01*
X132655000Y-98933000D01*
X132655000Y-97383750D01*
X132909000Y-97383750D01*
X132909000Y-98933000D01*
X134458250Y-98933000D01*
X134617000Y-98774250D01*
X134620072Y-97860000D01*
X134607812Y-97735518D01*
X134571502Y-97615820D01*
X134512537Y-97505506D01*
X134433185Y-97408815D01*
X134336494Y-97329463D01*
X134226180Y-97270498D01*
X134106482Y-97234188D01*
X133982000Y-97221928D01*
X133067750Y-97225000D01*
X132909000Y-97383750D01*
X132655000Y-97383750D01*
X132496250Y-97225000D01*
X131582000Y-97221928D01*
X131457518Y-97234188D01*
X131337820Y-97270498D01*
X131227506Y-97329463D01*
X131130815Y-97408815D01*
X131051463Y-97505506D01*
X130992498Y-97615820D01*
X130956188Y-97735518D01*
X130943928Y-97860000D01*
X129667000Y-97860000D01*
X129667000Y-84127000D01*
X130440000Y-84127000D01*
X130440000Y-85877000D01*
X130510604Y-86339850D01*
X130670148Y-86780032D01*
X130912502Y-87180631D01*
X131228352Y-87526252D01*
X131605561Y-87803612D01*
X132029632Y-88002053D01*
X132326997Y-88082427D01*
X132698000Y-87972625D01*
X132698000Y-84127000D01*
X132952000Y-84127000D01*
X132952000Y-87972625D01*
X133323003Y-88082427D01*
X133620368Y-88002053D01*
X134044439Y-87803612D01*
X134421648Y-87526252D01*
X134737498Y-87180631D01*
X134979852Y-86780032D01*
X135139396Y-86339850D01*
X135210000Y-85877000D01*
X135210000Y-84127000D01*
X132952000Y-84127000D01*
X132698000Y-84127000D01*
X130440000Y-84127000D01*
X129667000Y-84127000D01*
X129667000Y-82123000D01*
X130440000Y-82123000D01*
X130440000Y-83873000D01*
X132698000Y-83873000D01*
X132698000Y-80027375D01*
X132952000Y-80027375D01*
X132952000Y-83873000D01*
X135210000Y-83873000D01*
X135210000Y-82123000D01*
X135139396Y-81660150D01*
X134979852Y-81219968D01*
X134737498Y-80819369D01*
X134421648Y-80473748D01*
X134044439Y-80196388D01*
X133620368Y-79997947D01*
X133323003Y-79917573D01*
X132952000Y-80027375D01*
X132698000Y-80027375D01*
X132326997Y-79917573D01*
X132029632Y-79997947D01*
X131605561Y-80196388D01*
X131228352Y-80473748D01*
X130912502Y-80819369D01*
X130670148Y-81219968D01*
X130510604Y-81660150D01*
X130440000Y-82123000D01*
X129667000Y-82123000D01*
X129667000Y-80312127D01*
X130613199Y-79242946D01*
X135070801Y-79242946D01*
X136017000Y-80312127D01*
G04 #@! TO.N,Net-(F1-Pad2)*
G36*
X174265000Y-101229657D02*
G01*
X174265000Y-105411299D01*
X172952493Y-106553000D01*
X169000000Y-106553000D01*
X168975224Y-106555440D01*
X168951399Y-106562667D01*
X168929443Y-106574403D01*
X168911275Y-106589133D01*
X166535275Y-108909133D01*
X166519252Y-108928188D01*
X166507255Y-108950004D01*
X166499745Y-108973740D01*
X166497000Y-109000000D01*
X166497000Y-114265000D01*
X145432606Y-114265000D01*
X143383000Y-112215394D01*
X143383000Y-111661066D01*
X145058539Y-111661066D01*
X145160339Y-111930579D01*
X145458477Y-112076463D01*
X145779346Y-112161380D01*
X146110617Y-112182066D01*
X146439557Y-112137728D01*
X146753527Y-112030069D01*
X146939661Y-111930579D01*
X147041461Y-111661066D01*
X146050000Y-110669605D01*
X145058539Y-111661066D01*
X143383000Y-111661066D01*
X143383000Y-110550617D01*
X144357934Y-110550617D01*
X144402272Y-110879557D01*
X144509931Y-111193527D01*
X144609421Y-111379661D01*
X144878934Y-111481461D01*
X145870395Y-110490000D01*
X146229605Y-110490000D01*
X147221066Y-111481461D01*
X147490579Y-111379661D01*
X147636463Y-111081523D01*
X147721380Y-110760654D01*
X147742066Y-110429383D01*
X147697728Y-110100443D01*
X147590069Y-109786473D01*
X147490579Y-109600339D01*
X147221066Y-109498539D01*
X146229605Y-110490000D01*
X145870395Y-110490000D01*
X144878934Y-109498539D01*
X144609421Y-109600339D01*
X144463537Y-109898477D01*
X144378620Y-110219346D01*
X144357934Y-110550617D01*
X143383000Y-110550617D01*
X143383000Y-109318934D01*
X145058539Y-109318934D01*
X146050000Y-110310395D01*
X147041461Y-109318934D01*
X146939661Y-109049421D01*
X146641523Y-108903537D01*
X146320654Y-108818620D01*
X145989383Y-108797934D01*
X145660443Y-108842272D01*
X145346473Y-108949931D01*
X145160339Y-109049421D01*
X145058539Y-109318934D01*
X143383000Y-109318934D01*
X143383000Y-108256606D01*
X144324606Y-107315000D01*
X147828000Y-107315000D01*
X147852776Y-107312560D01*
X147876601Y-107305333D01*
X147898557Y-107293597D01*
X147917803Y-107277803D01*
X152065961Y-103129645D01*
X165822305Y-103129645D01*
X165869886Y-103314025D01*
X166022122Y-103651653D01*
X166237301Y-103953094D01*
X166507153Y-104206763D01*
X166821309Y-104402912D01*
X167167695Y-104534004D01*
X167533000Y-104595000D01*
X168783000Y-104595000D01*
X168783000Y-102837000D01*
X169037000Y-102837000D01*
X169037000Y-104595000D01*
X170287000Y-104595000D01*
X170652305Y-104534004D01*
X170998691Y-104402912D01*
X171312847Y-104206763D01*
X171582699Y-103953094D01*
X171797878Y-103651653D01*
X171950114Y-103314025D01*
X171997695Y-103129645D01*
X171881572Y-102837000D01*
X169037000Y-102837000D01*
X168783000Y-102837000D01*
X165938428Y-102837000D01*
X165822305Y-103129645D01*
X152065961Y-103129645D01*
X152905251Y-102290355D01*
X165822305Y-102290355D01*
X165938428Y-102583000D01*
X168783000Y-102583000D01*
X168783000Y-100825000D01*
X169037000Y-100825000D01*
X169037000Y-102583000D01*
X171881572Y-102583000D01*
X171997695Y-102290355D01*
X171950114Y-102105975D01*
X171797878Y-101768347D01*
X171582699Y-101466906D01*
X171312847Y-101213237D01*
X170998691Y-101017088D01*
X170652305Y-100885996D01*
X170287000Y-100825000D01*
X169037000Y-100825000D01*
X168783000Y-100825000D01*
X167533000Y-100825000D01*
X167167695Y-100885996D01*
X166821309Y-101017088D01*
X166507153Y-101213237D01*
X166237301Y-101466906D01*
X166022122Y-101768347D01*
X165869886Y-102105975D01*
X165822305Y-102290355D01*
X152905251Y-102290355D01*
X155500606Y-99695000D01*
X172941811Y-99695000D01*
X174265000Y-101229657D01*
G37*
X174265000Y-101229657D02*
X174265000Y-105411299D01*
X172952493Y-106553000D01*
X169000000Y-106553000D01*
X168975224Y-106555440D01*
X168951399Y-106562667D01*
X168929443Y-106574403D01*
X168911275Y-106589133D01*
X166535275Y-108909133D01*
X166519252Y-108928188D01*
X166507255Y-108950004D01*
X166499745Y-108973740D01*
X166497000Y-109000000D01*
X166497000Y-114265000D01*
X145432606Y-114265000D01*
X143383000Y-112215394D01*
X143383000Y-111661066D01*
X145058539Y-111661066D01*
X145160339Y-111930579D01*
X145458477Y-112076463D01*
X145779346Y-112161380D01*
X146110617Y-112182066D01*
X146439557Y-112137728D01*
X146753527Y-112030069D01*
X146939661Y-111930579D01*
X147041461Y-111661066D01*
X146050000Y-110669605D01*
X145058539Y-111661066D01*
X143383000Y-111661066D01*
X143383000Y-110550617D01*
X144357934Y-110550617D01*
X144402272Y-110879557D01*
X144509931Y-111193527D01*
X144609421Y-111379661D01*
X144878934Y-111481461D01*
X145870395Y-110490000D01*
X146229605Y-110490000D01*
X147221066Y-111481461D01*
X147490579Y-111379661D01*
X147636463Y-111081523D01*
X147721380Y-110760654D01*
X147742066Y-110429383D01*
X147697728Y-110100443D01*
X147590069Y-109786473D01*
X147490579Y-109600339D01*
X147221066Y-109498539D01*
X146229605Y-110490000D01*
X145870395Y-110490000D01*
X144878934Y-109498539D01*
X144609421Y-109600339D01*
X144463537Y-109898477D01*
X144378620Y-110219346D01*
X144357934Y-110550617D01*
X143383000Y-110550617D01*
X143383000Y-109318934D01*
X145058539Y-109318934D01*
X146050000Y-110310395D01*
X147041461Y-109318934D01*
X146939661Y-109049421D01*
X146641523Y-108903537D01*
X146320654Y-108818620D01*
X145989383Y-108797934D01*
X145660443Y-108842272D01*
X145346473Y-108949931D01*
X145160339Y-109049421D01*
X145058539Y-109318934D01*
X143383000Y-109318934D01*
X143383000Y-108256606D01*
X144324606Y-107315000D01*
X147828000Y-107315000D01*
X147852776Y-107312560D01*
X147876601Y-107305333D01*
X147898557Y-107293597D01*
X147917803Y-107277803D01*
X152065961Y-103129645D01*
X165822305Y-103129645D01*
X165869886Y-103314025D01*
X166022122Y-103651653D01*
X166237301Y-103953094D01*
X166507153Y-104206763D01*
X166821309Y-104402912D01*
X167167695Y-104534004D01*
X167533000Y-104595000D01*
X168783000Y-104595000D01*
X168783000Y-102837000D01*
X169037000Y-102837000D01*
X169037000Y-104595000D01*
X170287000Y-104595000D01*
X170652305Y-104534004D01*
X170998691Y-104402912D01*
X171312847Y-104206763D01*
X171582699Y-103953094D01*
X171797878Y-103651653D01*
X171950114Y-103314025D01*
X171997695Y-103129645D01*
X171881572Y-102837000D01*
X169037000Y-102837000D01*
X168783000Y-102837000D01*
X165938428Y-102837000D01*
X165822305Y-103129645D01*
X152065961Y-103129645D01*
X152905251Y-102290355D01*
X165822305Y-102290355D01*
X165938428Y-102583000D01*
X168783000Y-102583000D01*
X168783000Y-100825000D01*
X169037000Y-100825000D01*
X169037000Y-102583000D01*
X171881572Y-102583000D01*
X171997695Y-102290355D01*
X171950114Y-102105975D01*
X171797878Y-101768347D01*
X171582699Y-101466906D01*
X171312847Y-101213237D01*
X170998691Y-101017088D01*
X170652305Y-100885996D01*
X170287000Y-100825000D01*
X169037000Y-100825000D01*
X168783000Y-100825000D01*
X167533000Y-100825000D01*
X167167695Y-100885996D01*
X166821309Y-101017088D01*
X166507153Y-101213237D01*
X166237301Y-101466906D01*
X166022122Y-101768347D01*
X165869886Y-102105975D01*
X165822305Y-102290355D01*
X152905251Y-102290355D01*
X155500606Y-99695000D01*
X172941811Y-99695000D01*
X174265000Y-101229657D01*
G04 #@! TO.N,GND*
G36*
X142298987Y-73718987D02*
G01*
X142220017Y-73815213D01*
X142161336Y-73924996D01*
X142125201Y-74044118D01*
X142113000Y-74168000D01*
X142113000Y-87884000D01*
X142125201Y-88007882D01*
X142161336Y-88127004D01*
X142220017Y-88236787D01*
X142298987Y-88333013D01*
X143314987Y-89349013D01*
X143411213Y-89427983D01*
X143520996Y-89486664D01*
X143640118Y-89522799D01*
X143764000Y-89535000D01*
X155075001Y-89535000D01*
X155075001Y-91462049D01*
X154901175Y-91635875D01*
X154716772Y-91911853D01*
X154589754Y-92218504D01*
X154525000Y-92544042D01*
X154525000Y-92875958D01*
X154589754Y-93201496D01*
X154716772Y-93508147D01*
X154901175Y-93784125D01*
X155135875Y-94018825D01*
X155411853Y-94203228D01*
X155718504Y-94330246D01*
X156044042Y-94395000D01*
X156375958Y-94395000D01*
X156701496Y-94330246D01*
X157008147Y-94203228D01*
X157284125Y-94018825D01*
X157518825Y-93784125D01*
X157703228Y-93508147D01*
X157830246Y-93201496D01*
X157895000Y-92875958D01*
X157895000Y-92544042D01*
X157884225Y-92489872D01*
X166675000Y-92489872D01*
X166675000Y-92930128D01*
X166760890Y-93361925D01*
X166929369Y-93768669D01*
X167173962Y-94134729D01*
X167485271Y-94446038D01*
X167851331Y-94690631D01*
X168258075Y-94859110D01*
X168689872Y-94945000D01*
X169130128Y-94945000D01*
X169561925Y-94859110D01*
X169968669Y-94690631D01*
X170334729Y-94446038D01*
X170646038Y-94134729D01*
X170890631Y-93768669D01*
X171059110Y-93361925D01*
X171145000Y-92930128D01*
X171145000Y-92489872D01*
X171059110Y-92058075D01*
X170890631Y-91651331D01*
X170646038Y-91285271D01*
X170334729Y-90973962D01*
X169968669Y-90729369D01*
X169561925Y-90560890D01*
X169130128Y-90475000D01*
X168689872Y-90475000D01*
X168258075Y-90560890D01*
X167851331Y-90729369D01*
X167485271Y-90973962D01*
X167173962Y-91285271D01*
X166929369Y-91651331D01*
X166760890Y-92058075D01*
X166675000Y-92489872D01*
X157884225Y-92489872D01*
X157830246Y-92218504D01*
X157703228Y-91911853D01*
X157518825Y-91635875D01*
X157345000Y-91462050D01*
X157345000Y-86107026D01*
X160586987Y-89349013D01*
X160683213Y-89427983D01*
X160792996Y-89486664D01*
X160912118Y-89522799D01*
X161036000Y-89535000D01*
X173228000Y-89535000D01*
X173351882Y-89522799D01*
X173471004Y-89486664D01*
X173580787Y-89427983D01*
X173677013Y-89349013D01*
X174265001Y-88761025D01*
X174265000Y-100062732D01*
X173480923Y-99153346D01*
X173352787Y-99040017D01*
X173243004Y-98981336D01*
X173123882Y-98945201D01*
X173000000Y-98933000D01*
X155448000Y-98933000D01*
X155324118Y-98945201D01*
X155204996Y-98981336D01*
X155095213Y-99040017D01*
X154998987Y-99118987D01*
X149479000Y-104638974D01*
X149479000Y-99060000D01*
X149466799Y-98936118D01*
X149430664Y-98816996D01*
X149371983Y-98707213D01*
X149293013Y-98610987D01*
X147769013Y-97086987D01*
X147672787Y-97008017D01*
X147563004Y-96949336D01*
X147443882Y-96913201D01*
X147320000Y-96901000D01*
X142503026Y-96901000D01*
X139362026Y-93760000D01*
X144361928Y-93760000D01*
X144374188Y-93884482D01*
X144410498Y-94004180D01*
X144469463Y-94114494D01*
X144548815Y-94211185D01*
X144645506Y-94290537D01*
X144755820Y-94349502D01*
X144875518Y-94385812D01*
X145000000Y-94398072D01*
X145764250Y-94395000D01*
X145923000Y-94236250D01*
X145923000Y-92837000D01*
X146177000Y-92837000D01*
X146177000Y-94236250D01*
X146335750Y-94395000D01*
X147100000Y-94398072D01*
X147224482Y-94385812D01*
X147344180Y-94349502D01*
X147454494Y-94290537D01*
X147551185Y-94211185D01*
X147630537Y-94114494D01*
X147689502Y-94004180D01*
X147725812Y-93884482D01*
X147738072Y-93760000D01*
X147735000Y-92995750D01*
X147576250Y-92837000D01*
X146177000Y-92837000D01*
X145923000Y-92837000D01*
X144523750Y-92837000D01*
X144365000Y-92995750D01*
X144361928Y-93760000D01*
X139362026Y-93760000D01*
X137262026Y-91660000D01*
X144361928Y-91660000D01*
X144365000Y-92424250D01*
X144523750Y-92583000D01*
X145923000Y-92583000D01*
X145923000Y-91183750D01*
X146177000Y-91183750D01*
X146177000Y-92583000D01*
X147576250Y-92583000D01*
X147735000Y-92424250D01*
X147738072Y-91660000D01*
X147725812Y-91535518D01*
X147689502Y-91415820D01*
X147630537Y-91305506D01*
X147551185Y-91208815D01*
X147454494Y-91129463D01*
X147344180Y-91070498D01*
X147224482Y-91034188D01*
X147100000Y-91021928D01*
X146335750Y-91025000D01*
X146177000Y-91183750D01*
X145923000Y-91183750D01*
X145764250Y-91025000D01*
X145000000Y-91021928D01*
X144875518Y-91034188D01*
X144755820Y-91070498D01*
X144645506Y-91129463D01*
X144548815Y-91208815D01*
X144469463Y-91305506D01*
X144410498Y-91415820D01*
X144374188Y-91535518D01*
X144361928Y-91660000D01*
X137262026Y-91660000D01*
X136779000Y-91176974D01*
X136779000Y-84127000D01*
X136790000Y-84127000D01*
X136790000Y-85877000D01*
X136860604Y-86339850D01*
X137020148Y-86780032D01*
X137262502Y-87180631D01*
X137578352Y-87526252D01*
X137955561Y-87803612D01*
X138379632Y-88002053D01*
X138676997Y-88082427D01*
X139048000Y-87972625D01*
X139048000Y-84127000D01*
X139302000Y-84127000D01*
X139302000Y-87972625D01*
X139673003Y-88082427D01*
X139970368Y-88002053D01*
X140394439Y-87803612D01*
X140771648Y-87526252D01*
X141087498Y-87180631D01*
X141329852Y-86780032D01*
X141489396Y-86339850D01*
X141560000Y-85877000D01*
X141560000Y-84127000D01*
X139302000Y-84127000D01*
X139048000Y-84127000D01*
X136790000Y-84127000D01*
X136779000Y-84127000D01*
X136779000Y-82123000D01*
X136790000Y-82123000D01*
X136790000Y-83873000D01*
X139048000Y-83873000D01*
X139048000Y-80027375D01*
X139302000Y-80027375D01*
X139302000Y-83873000D01*
X141560000Y-83873000D01*
X141560000Y-82123000D01*
X141489396Y-81660150D01*
X141329852Y-81219968D01*
X141087498Y-80819369D01*
X140771648Y-80473748D01*
X140394439Y-80196388D01*
X139970368Y-79997947D01*
X139673003Y-79917573D01*
X139302000Y-80027375D01*
X139048000Y-80027375D01*
X138676997Y-79917573D01*
X138379632Y-79997947D01*
X137955561Y-80196388D01*
X137578352Y-80473748D01*
X137262502Y-80819369D01*
X137020148Y-81219968D01*
X136860604Y-81660150D01*
X136790000Y-82123000D01*
X136779000Y-82123000D01*
X136779000Y-80264000D01*
X136773188Y-80178281D01*
X136744375Y-80057180D01*
X136692491Y-79944026D01*
X136619528Y-79843169D01*
X135603528Y-78695115D01*
X135480787Y-78587963D01*
X135371004Y-78529282D01*
X135251882Y-78493147D01*
X135128000Y-78480946D01*
X130556000Y-78480946D01*
X130394414Y-78501849D01*
X130277715Y-78545173D01*
X130171709Y-78610431D01*
X130080472Y-78695115D01*
X129064472Y-79843169D01*
X129012017Y-79911213D01*
X128953336Y-80020996D01*
X128917201Y-80140118D01*
X128905000Y-80264000D01*
X128905000Y-103124000D01*
X128917201Y-103247882D01*
X128953336Y-103367004D01*
X129012017Y-103476787D01*
X129090987Y-103573013D01*
X132138987Y-106621013D01*
X132235213Y-106699983D01*
X132344996Y-106758664D01*
X132464118Y-106794799D01*
X132588000Y-106807000D01*
X143754974Y-106807000D01*
X142806987Y-107754987D01*
X142728017Y-107851213D01*
X142669336Y-107960996D01*
X142633201Y-108080118D01*
X142621000Y-108204000D01*
X142621000Y-112268000D01*
X142633201Y-112391882D01*
X142669336Y-112511004D01*
X142728017Y-112620787D01*
X142806987Y-112717013D01*
X144354974Y-114265000D01*
X123127000Y-114265000D01*
X123127000Y-109000000D01*
X123124560Y-108975224D01*
X123117333Y-108951399D01*
X123105597Y-108929443D01*
X123089803Y-108910197D01*
X121089803Y-106910197D01*
X121070557Y-106894403D01*
X121048601Y-106882667D01*
X121024776Y-106875440D01*
X121000000Y-106873000D01*
X115735000Y-106873000D01*
X115735000Y-100337980D01*
X123933626Y-100337980D01*
X124053514Y-100622836D01*
X124377210Y-100783699D01*
X124726069Y-100878322D01*
X125086684Y-100903067D01*
X125445198Y-100856985D01*
X125787833Y-100741846D01*
X126010486Y-100622836D01*
X126130374Y-100337980D01*
X125032000Y-99239605D01*
X123933626Y-100337980D01*
X115735000Y-100337980D01*
X115735000Y-99114684D01*
X123188933Y-99114684D01*
X123235015Y-99473198D01*
X123350154Y-99815833D01*
X123469164Y-100038486D01*
X123754020Y-100158374D01*
X124852395Y-99060000D01*
X125211605Y-99060000D01*
X126309980Y-100158374D01*
X126594836Y-100038486D01*
X126755699Y-99714790D01*
X126850322Y-99365931D01*
X126875067Y-99005316D01*
X126828985Y-98646802D01*
X126713846Y-98304167D01*
X126594836Y-98081514D01*
X126309980Y-97961626D01*
X125211605Y-99060000D01*
X124852395Y-99060000D01*
X123754020Y-97961626D01*
X123469164Y-98081514D01*
X123308301Y-98405210D01*
X123213678Y-98754069D01*
X123188933Y-99114684D01*
X115735000Y-99114684D01*
X115735000Y-97782020D01*
X123933626Y-97782020D01*
X125032000Y-98880395D01*
X126130374Y-97782020D01*
X126010486Y-97497164D01*
X125686790Y-97336301D01*
X125337931Y-97241678D01*
X124977316Y-97216933D01*
X124618802Y-97263015D01*
X124276167Y-97378154D01*
X124053514Y-97497164D01*
X123933626Y-97782020D01*
X115735000Y-97782020D01*
X115735000Y-84127000D01*
X124090000Y-84127000D01*
X124090000Y-85877000D01*
X124160604Y-86339850D01*
X124320148Y-86780032D01*
X124562502Y-87180631D01*
X124878352Y-87526252D01*
X125255561Y-87803612D01*
X125679632Y-88002053D01*
X125976997Y-88082427D01*
X126348000Y-87972625D01*
X126348000Y-84127000D01*
X126602000Y-84127000D01*
X126602000Y-87972625D01*
X126973003Y-88082427D01*
X127270368Y-88002053D01*
X127694439Y-87803612D01*
X128071648Y-87526252D01*
X128387498Y-87180631D01*
X128629852Y-86780032D01*
X128789396Y-86339850D01*
X128860000Y-85877000D01*
X128860000Y-84127000D01*
X126602000Y-84127000D01*
X126348000Y-84127000D01*
X124090000Y-84127000D01*
X115735000Y-84127000D01*
X115735000Y-82123000D01*
X124090000Y-82123000D01*
X124090000Y-83873000D01*
X126348000Y-83873000D01*
X126348000Y-80027375D01*
X126602000Y-80027375D01*
X126602000Y-83873000D01*
X128860000Y-83873000D01*
X128860000Y-82123000D01*
X128789396Y-81660150D01*
X128629852Y-81219968D01*
X128387498Y-80819369D01*
X128071648Y-80473748D01*
X127694439Y-80196388D01*
X127270368Y-79997947D01*
X126973003Y-79917573D01*
X126602000Y-80027375D01*
X126348000Y-80027375D01*
X125976997Y-79917573D01*
X125679632Y-79997947D01*
X125255561Y-80196388D01*
X124878352Y-80473748D01*
X124562502Y-80819369D01*
X124320148Y-81219968D01*
X124160604Y-81660150D01*
X124090000Y-82123000D01*
X115735000Y-82123000D01*
X115735000Y-79127000D01*
X121000000Y-79127000D01*
X121024776Y-79124560D01*
X121048601Y-79117333D01*
X121070557Y-79105597D01*
X121089803Y-79089803D01*
X123089803Y-77089803D01*
X123105597Y-77070557D01*
X123117333Y-77048601D01*
X123124560Y-77024776D01*
X123127000Y-77000000D01*
X123127000Y-71735000D01*
X144282974Y-71735000D01*
X142298987Y-73718987D01*
G37*
X142298987Y-73718987D02*
X142220017Y-73815213D01*
X142161336Y-73924996D01*
X142125201Y-74044118D01*
X142113000Y-74168000D01*
X142113000Y-87884000D01*
X142125201Y-88007882D01*
X142161336Y-88127004D01*
X142220017Y-88236787D01*
X142298987Y-88333013D01*
X143314987Y-89349013D01*
X143411213Y-89427983D01*
X143520996Y-89486664D01*
X143640118Y-89522799D01*
X143764000Y-89535000D01*
X155075001Y-89535000D01*
X155075001Y-91462049D01*
X154901175Y-91635875D01*
X154716772Y-91911853D01*
X154589754Y-92218504D01*
X154525000Y-92544042D01*
X154525000Y-92875958D01*
X154589754Y-93201496D01*
X154716772Y-93508147D01*
X154901175Y-93784125D01*
X155135875Y-94018825D01*
X155411853Y-94203228D01*
X155718504Y-94330246D01*
X156044042Y-94395000D01*
X156375958Y-94395000D01*
X156701496Y-94330246D01*
X157008147Y-94203228D01*
X157284125Y-94018825D01*
X157518825Y-93784125D01*
X157703228Y-93508147D01*
X157830246Y-93201496D01*
X157895000Y-92875958D01*
X157895000Y-92544042D01*
X157884225Y-92489872D01*
X166675000Y-92489872D01*
X166675000Y-92930128D01*
X166760890Y-93361925D01*
X166929369Y-93768669D01*
X167173962Y-94134729D01*
X167485271Y-94446038D01*
X167851331Y-94690631D01*
X168258075Y-94859110D01*
X168689872Y-94945000D01*
X169130128Y-94945000D01*
X169561925Y-94859110D01*
X169968669Y-94690631D01*
X170334729Y-94446038D01*
X170646038Y-94134729D01*
X170890631Y-93768669D01*
X171059110Y-93361925D01*
X171145000Y-92930128D01*
X171145000Y-92489872D01*
X171059110Y-92058075D01*
X170890631Y-91651331D01*
X170646038Y-91285271D01*
X170334729Y-90973962D01*
X169968669Y-90729369D01*
X169561925Y-90560890D01*
X169130128Y-90475000D01*
X168689872Y-90475000D01*
X168258075Y-90560890D01*
X167851331Y-90729369D01*
X167485271Y-90973962D01*
X167173962Y-91285271D01*
X166929369Y-91651331D01*
X166760890Y-92058075D01*
X166675000Y-92489872D01*
X157884225Y-92489872D01*
X157830246Y-92218504D01*
X157703228Y-91911853D01*
X157518825Y-91635875D01*
X157345000Y-91462050D01*
X157345000Y-86107026D01*
X160586987Y-89349013D01*
X160683213Y-89427983D01*
X160792996Y-89486664D01*
X160912118Y-89522799D01*
X161036000Y-89535000D01*
X173228000Y-89535000D01*
X173351882Y-89522799D01*
X173471004Y-89486664D01*
X173580787Y-89427983D01*
X173677013Y-89349013D01*
X174265001Y-88761025D01*
X174265000Y-100062732D01*
X173480923Y-99153346D01*
X173352787Y-99040017D01*
X173243004Y-98981336D01*
X173123882Y-98945201D01*
X173000000Y-98933000D01*
X155448000Y-98933000D01*
X155324118Y-98945201D01*
X155204996Y-98981336D01*
X155095213Y-99040017D01*
X154998987Y-99118987D01*
X149479000Y-104638974D01*
X149479000Y-99060000D01*
X149466799Y-98936118D01*
X149430664Y-98816996D01*
X149371983Y-98707213D01*
X149293013Y-98610987D01*
X147769013Y-97086987D01*
X147672787Y-97008017D01*
X147563004Y-96949336D01*
X147443882Y-96913201D01*
X147320000Y-96901000D01*
X142503026Y-96901000D01*
X139362026Y-93760000D01*
X144361928Y-93760000D01*
X144374188Y-93884482D01*
X144410498Y-94004180D01*
X144469463Y-94114494D01*
X144548815Y-94211185D01*
X144645506Y-94290537D01*
X144755820Y-94349502D01*
X144875518Y-94385812D01*
X145000000Y-94398072D01*
X145764250Y-94395000D01*
X145923000Y-94236250D01*
X145923000Y-92837000D01*
X146177000Y-92837000D01*
X146177000Y-94236250D01*
X146335750Y-94395000D01*
X147100000Y-94398072D01*
X147224482Y-94385812D01*
X147344180Y-94349502D01*
X147454494Y-94290537D01*
X147551185Y-94211185D01*
X147630537Y-94114494D01*
X147689502Y-94004180D01*
X147725812Y-93884482D01*
X147738072Y-93760000D01*
X147735000Y-92995750D01*
X147576250Y-92837000D01*
X146177000Y-92837000D01*
X145923000Y-92837000D01*
X144523750Y-92837000D01*
X144365000Y-92995750D01*
X144361928Y-93760000D01*
X139362026Y-93760000D01*
X137262026Y-91660000D01*
X144361928Y-91660000D01*
X144365000Y-92424250D01*
X144523750Y-92583000D01*
X145923000Y-92583000D01*
X145923000Y-91183750D01*
X146177000Y-91183750D01*
X146177000Y-92583000D01*
X147576250Y-92583000D01*
X147735000Y-92424250D01*
X147738072Y-91660000D01*
X147725812Y-91535518D01*
X147689502Y-91415820D01*
X147630537Y-91305506D01*
X147551185Y-91208815D01*
X147454494Y-91129463D01*
X147344180Y-91070498D01*
X147224482Y-91034188D01*
X147100000Y-91021928D01*
X146335750Y-91025000D01*
X146177000Y-91183750D01*
X145923000Y-91183750D01*
X145764250Y-91025000D01*
X145000000Y-91021928D01*
X144875518Y-91034188D01*
X144755820Y-91070498D01*
X144645506Y-91129463D01*
X144548815Y-91208815D01*
X144469463Y-91305506D01*
X144410498Y-91415820D01*
X144374188Y-91535518D01*
X144361928Y-91660000D01*
X137262026Y-91660000D01*
X136779000Y-91176974D01*
X136779000Y-84127000D01*
X136790000Y-84127000D01*
X136790000Y-85877000D01*
X136860604Y-86339850D01*
X137020148Y-86780032D01*
X137262502Y-87180631D01*
X137578352Y-87526252D01*
X137955561Y-87803612D01*
X138379632Y-88002053D01*
X138676997Y-88082427D01*
X139048000Y-87972625D01*
X139048000Y-84127000D01*
X139302000Y-84127000D01*
X139302000Y-87972625D01*
X139673003Y-88082427D01*
X139970368Y-88002053D01*
X140394439Y-87803612D01*
X140771648Y-87526252D01*
X141087498Y-87180631D01*
X141329852Y-86780032D01*
X141489396Y-86339850D01*
X141560000Y-85877000D01*
X141560000Y-84127000D01*
X139302000Y-84127000D01*
X139048000Y-84127000D01*
X136790000Y-84127000D01*
X136779000Y-84127000D01*
X136779000Y-82123000D01*
X136790000Y-82123000D01*
X136790000Y-83873000D01*
X139048000Y-83873000D01*
X139048000Y-80027375D01*
X139302000Y-80027375D01*
X139302000Y-83873000D01*
X141560000Y-83873000D01*
X141560000Y-82123000D01*
X141489396Y-81660150D01*
X141329852Y-81219968D01*
X141087498Y-80819369D01*
X140771648Y-80473748D01*
X140394439Y-80196388D01*
X139970368Y-79997947D01*
X139673003Y-79917573D01*
X139302000Y-80027375D01*
X139048000Y-80027375D01*
X138676997Y-79917573D01*
X138379632Y-79997947D01*
X137955561Y-80196388D01*
X137578352Y-80473748D01*
X137262502Y-80819369D01*
X137020148Y-81219968D01*
X136860604Y-81660150D01*
X136790000Y-82123000D01*
X136779000Y-82123000D01*
X136779000Y-80264000D01*
X136773188Y-80178281D01*
X136744375Y-80057180D01*
X136692491Y-79944026D01*
X136619528Y-79843169D01*
X135603528Y-78695115D01*
X135480787Y-78587963D01*
X135371004Y-78529282D01*
X135251882Y-78493147D01*
X135128000Y-78480946D01*
X130556000Y-78480946D01*
X130394414Y-78501849D01*
X130277715Y-78545173D01*
X130171709Y-78610431D01*
X130080472Y-78695115D01*
X129064472Y-79843169D01*
X129012017Y-79911213D01*
X128953336Y-80020996D01*
X128917201Y-80140118D01*
X128905000Y-80264000D01*
X128905000Y-103124000D01*
X128917201Y-103247882D01*
X128953336Y-103367004D01*
X129012017Y-103476787D01*
X129090987Y-103573013D01*
X132138987Y-106621013D01*
X132235213Y-106699983D01*
X132344996Y-106758664D01*
X132464118Y-106794799D01*
X132588000Y-106807000D01*
X143754974Y-106807000D01*
X142806987Y-107754987D01*
X142728017Y-107851213D01*
X142669336Y-107960996D01*
X142633201Y-108080118D01*
X142621000Y-108204000D01*
X142621000Y-112268000D01*
X142633201Y-112391882D01*
X142669336Y-112511004D01*
X142728017Y-112620787D01*
X142806987Y-112717013D01*
X144354974Y-114265000D01*
X123127000Y-114265000D01*
X123127000Y-109000000D01*
X123124560Y-108975224D01*
X123117333Y-108951399D01*
X123105597Y-108929443D01*
X123089803Y-108910197D01*
X121089803Y-106910197D01*
X121070557Y-106894403D01*
X121048601Y-106882667D01*
X121024776Y-106875440D01*
X121000000Y-106873000D01*
X115735000Y-106873000D01*
X115735000Y-100337980D01*
X123933626Y-100337980D01*
X124053514Y-100622836D01*
X124377210Y-100783699D01*
X124726069Y-100878322D01*
X125086684Y-100903067D01*
X125445198Y-100856985D01*
X125787833Y-100741846D01*
X126010486Y-100622836D01*
X126130374Y-100337980D01*
X125032000Y-99239605D01*
X123933626Y-100337980D01*
X115735000Y-100337980D01*
X115735000Y-99114684D01*
X123188933Y-99114684D01*
X123235015Y-99473198D01*
X123350154Y-99815833D01*
X123469164Y-100038486D01*
X123754020Y-100158374D01*
X124852395Y-99060000D01*
X125211605Y-99060000D01*
X126309980Y-100158374D01*
X126594836Y-100038486D01*
X126755699Y-99714790D01*
X126850322Y-99365931D01*
X126875067Y-99005316D01*
X126828985Y-98646802D01*
X126713846Y-98304167D01*
X126594836Y-98081514D01*
X126309980Y-97961626D01*
X125211605Y-99060000D01*
X124852395Y-99060000D01*
X123754020Y-97961626D01*
X123469164Y-98081514D01*
X123308301Y-98405210D01*
X123213678Y-98754069D01*
X123188933Y-99114684D01*
X115735000Y-99114684D01*
X115735000Y-97782020D01*
X123933626Y-97782020D01*
X125032000Y-98880395D01*
X126130374Y-97782020D01*
X126010486Y-97497164D01*
X125686790Y-97336301D01*
X125337931Y-97241678D01*
X124977316Y-97216933D01*
X124618802Y-97263015D01*
X124276167Y-97378154D01*
X124053514Y-97497164D01*
X123933626Y-97782020D01*
X115735000Y-97782020D01*
X115735000Y-84127000D01*
X124090000Y-84127000D01*
X124090000Y-85877000D01*
X124160604Y-86339850D01*
X124320148Y-86780032D01*
X124562502Y-87180631D01*
X124878352Y-87526252D01*
X125255561Y-87803612D01*
X125679632Y-88002053D01*
X125976997Y-88082427D01*
X126348000Y-87972625D01*
X126348000Y-84127000D01*
X126602000Y-84127000D01*
X126602000Y-87972625D01*
X126973003Y-88082427D01*
X127270368Y-88002053D01*
X127694439Y-87803612D01*
X128071648Y-87526252D01*
X128387498Y-87180631D01*
X128629852Y-86780032D01*
X128789396Y-86339850D01*
X128860000Y-85877000D01*
X128860000Y-84127000D01*
X126602000Y-84127000D01*
X126348000Y-84127000D01*
X124090000Y-84127000D01*
X115735000Y-84127000D01*
X115735000Y-82123000D01*
X124090000Y-82123000D01*
X124090000Y-83873000D01*
X126348000Y-83873000D01*
X126348000Y-80027375D01*
X126602000Y-80027375D01*
X126602000Y-83873000D01*
X128860000Y-83873000D01*
X128860000Y-82123000D01*
X128789396Y-81660150D01*
X128629852Y-81219968D01*
X128387498Y-80819369D01*
X128071648Y-80473748D01*
X127694439Y-80196388D01*
X127270368Y-79997947D01*
X126973003Y-79917573D01*
X126602000Y-80027375D01*
X126348000Y-80027375D01*
X125976997Y-79917573D01*
X125679632Y-79997947D01*
X125255561Y-80196388D01*
X124878352Y-80473748D01*
X124562502Y-80819369D01*
X124320148Y-81219968D01*
X124160604Y-81660150D01*
X124090000Y-82123000D01*
X115735000Y-82123000D01*
X115735000Y-79127000D01*
X121000000Y-79127000D01*
X121024776Y-79124560D01*
X121048601Y-79117333D01*
X121070557Y-79105597D01*
X121089803Y-79089803D01*
X123089803Y-77089803D01*
X123105597Y-77070557D01*
X123117333Y-77048601D01*
X123124560Y-77024776D01*
X123127000Y-77000000D01*
X123127000Y-71735000D01*
X144282974Y-71735000D01*
X142298987Y-73718987D01*
G04 #@! TO.N,VCC*
G36*
X165989000Y-77216000D02*
G01*
X165991440Y-77240776D01*
X165998667Y-77264601D01*
X166010403Y-77286557D01*
X166026197Y-77305803D01*
X168566197Y-79845803D01*
X168585443Y-79861597D01*
X168607399Y-79873333D01*
X168631224Y-79880560D01*
X168656000Y-79883000D01*
X174265001Y-79883000D01*
X174265001Y-87683393D01*
X173175394Y-88773000D01*
X161088606Y-88773000D01*
X157607000Y-85291394D01*
X157607000Y-83695280D01*
X157817954Y-83888664D01*
X158066991Y-84039854D01*
X158340739Y-84139554D01*
X158353110Y-84141476D01*
X158583000Y-84020155D01*
X158583000Y-82677000D01*
X158837000Y-82677000D01*
X158837000Y-84020155D01*
X159066890Y-84141476D01*
X159079261Y-84139554D01*
X159353009Y-84039854D01*
X159602046Y-83888664D01*
X159816802Y-83691795D01*
X159989025Y-83456812D01*
X160112096Y-83192745D01*
X160127522Y-83129645D01*
X165822305Y-83129645D01*
X165869886Y-83314025D01*
X166022122Y-83651653D01*
X166237301Y-83953094D01*
X166507153Y-84206763D01*
X166821309Y-84402912D01*
X167167695Y-84534004D01*
X167533000Y-84595000D01*
X168783000Y-84595000D01*
X168783000Y-82837000D01*
X169037000Y-82837000D01*
X169037000Y-84595000D01*
X170287000Y-84595000D01*
X170652305Y-84534004D01*
X170998691Y-84402912D01*
X171312847Y-84206763D01*
X171582699Y-83953094D01*
X171797878Y-83651653D01*
X171950114Y-83314025D01*
X171997695Y-83129645D01*
X171881572Y-82837000D01*
X169037000Y-82837000D01*
X168783000Y-82837000D01*
X165938428Y-82837000D01*
X165822305Y-83129645D01*
X160127522Y-83129645D01*
X160181285Y-82909742D01*
X160037232Y-82677000D01*
X158837000Y-82677000D01*
X158583000Y-82677000D01*
X158563000Y-82677000D01*
X158563000Y-82423000D01*
X158583000Y-82423000D01*
X158583000Y-81079845D01*
X158837000Y-81079845D01*
X158837000Y-82423000D01*
X160037232Y-82423000D01*
X160119331Y-82290355D01*
X165822305Y-82290355D01*
X165938428Y-82583000D01*
X168783000Y-82583000D01*
X168783000Y-80825000D01*
X169037000Y-80825000D01*
X169037000Y-82583000D01*
X171881572Y-82583000D01*
X171997695Y-82290355D01*
X171950114Y-82105975D01*
X171797878Y-81768347D01*
X171582699Y-81466906D01*
X171312847Y-81213237D01*
X170998691Y-81017088D01*
X170652305Y-80885996D01*
X170287000Y-80825000D01*
X169037000Y-80825000D01*
X168783000Y-80825000D01*
X167533000Y-80825000D01*
X167167695Y-80885996D01*
X166821309Y-81017088D01*
X166507153Y-81213237D01*
X166237301Y-81466906D01*
X166022122Y-81768347D01*
X165869886Y-82105975D01*
X165822305Y-82290355D01*
X160119331Y-82290355D01*
X160181285Y-82190258D01*
X160112096Y-81907255D01*
X159989025Y-81643188D01*
X159816802Y-81408205D01*
X159602046Y-81211336D01*
X159353009Y-81060146D01*
X159079261Y-80960446D01*
X159066890Y-80958524D01*
X158837000Y-81079845D01*
X158583000Y-81079845D01*
X158353110Y-80958524D01*
X158340739Y-80960446D01*
X158066991Y-81060146D01*
X157817954Y-81211336D01*
X157607000Y-81404720D01*
X157607000Y-80772000D01*
X157604560Y-80747224D01*
X157597333Y-80723399D01*
X157585597Y-80701443D01*
X157569803Y-80682197D01*
X157550557Y-80666403D01*
X157528601Y-80654667D01*
X157504776Y-80647440D01*
X157480000Y-80645000D01*
X154940000Y-80645000D01*
X154915224Y-80647440D01*
X154891399Y-80654667D01*
X154869443Y-80666403D01*
X154850197Y-80682197D01*
X152818197Y-82714197D01*
X152802403Y-82733443D01*
X152790667Y-82755399D01*
X152783440Y-82779224D01*
X152781000Y-82804000D01*
X152781000Y-87831394D01*
X151839394Y-88773000D01*
X143816606Y-88773000D01*
X142875000Y-87831394D01*
X142875000Y-84127000D01*
X143140000Y-84127000D01*
X143140000Y-85877000D01*
X143210604Y-86339850D01*
X143370148Y-86780032D01*
X143612502Y-87180631D01*
X143928352Y-87526252D01*
X144305561Y-87803612D01*
X144729632Y-88002053D01*
X145026997Y-88082427D01*
X145398000Y-87972625D01*
X145398000Y-84127000D01*
X145652000Y-84127000D01*
X145652000Y-87972625D01*
X146023003Y-88082427D01*
X146320368Y-88002053D01*
X146744439Y-87803612D01*
X147121648Y-87526252D01*
X147437498Y-87180631D01*
X147679852Y-86780032D01*
X147839396Y-86339850D01*
X147910000Y-85877000D01*
X147910000Y-84127000D01*
X145652000Y-84127000D01*
X145398000Y-84127000D01*
X143140000Y-84127000D01*
X142875000Y-84127000D01*
X142875000Y-82123000D01*
X143140000Y-82123000D01*
X143140000Y-83873000D01*
X145398000Y-83873000D01*
X145398000Y-80027375D01*
X145652000Y-80027375D01*
X145652000Y-83873000D01*
X147910000Y-83873000D01*
X147910000Y-82123000D01*
X147839396Y-81660150D01*
X147679852Y-81219968D01*
X147437498Y-80819369D01*
X147121648Y-80473748D01*
X146744439Y-80196388D01*
X146320368Y-79997947D01*
X146023003Y-79917573D01*
X145652000Y-80027375D01*
X145398000Y-80027375D01*
X145026997Y-79917573D01*
X144729632Y-79997947D01*
X144305561Y-80196388D01*
X143928352Y-80473748D01*
X143612502Y-80819369D01*
X143370148Y-81219968D01*
X143210604Y-81660150D01*
X143140000Y-82123000D01*
X142875000Y-82123000D01*
X142875000Y-74220606D01*
X145360606Y-71735000D01*
X165989000Y-71735000D01*
X165989000Y-77216000D01*
G37*
X165989000Y-77216000D02*
X165991440Y-77240776D01*
X165998667Y-77264601D01*
X166010403Y-77286557D01*
X166026197Y-77305803D01*
X168566197Y-79845803D01*
X168585443Y-79861597D01*
X168607399Y-79873333D01*
X168631224Y-79880560D01*
X168656000Y-79883000D01*
X174265001Y-79883000D01*
X174265001Y-87683393D01*
X173175394Y-88773000D01*
X161088606Y-88773000D01*
X157607000Y-85291394D01*
X157607000Y-83695280D01*
X157817954Y-83888664D01*
X158066991Y-84039854D01*
X158340739Y-84139554D01*
X158353110Y-84141476D01*
X158583000Y-84020155D01*
X158583000Y-82677000D01*
X158837000Y-82677000D01*
X158837000Y-84020155D01*
X159066890Y-84141476D01*
X159079261Y-84139554D01*
X159353009Y-84039854D01*
X159602046Y-83888664D01*
X159816802Y-83691795D01*
X159989025Y-83456812D01*
X160112096Y-83192745D01*
X160127522Y-83129645D01*
X165822305Y-83129645D01*
X165869886Y-83314025D01*
X166022122Y-83651653D01*
X166237301Y-83953094D01*
X166507153Y-84206763D01*
X166821309Y-84402912D01*
X167167695Y-84534004D01*
X167533000Y-84595000D01*
X168783000Y-84595000D01*
X168783000Y-82837000D01*
X169037000Y-82837000D01*
X169037000Y-84595000D01*
X170287000Y-84595000D01*
X170652305Y-84534004D01*
X170998691Y-84402912D01*
X171312847Y-84206763D01*
X171582699Y-83953094D01*
X171797878Y-83651653D01*
X171950114Y-83314025D01*
X171997695Y-83129645D01*
X171881572Y-82837000D01*
X169037000Y-82837000D01*
X168783000Y-82837000D01*
X165938428Y-82837000D01*
X165822305Y-83129645D01*
X160127522Y-83129645D01*
X160181285Y-82909742D01*
X160037232Y-82677000D01*
X158837000Y-82677000D01*
X158583000Y-82677000D01*
X158563000Y-82677000D01*
X158563000Y-82423000D01*
X158583000Y-82423000D01*
X158583000Y-81079845D01*
X158837000Y-81079845D01*
X158837000Y-82423000D01*
X160037232Y-82423000D01*
X160119331Y-82290355D01*
X165822305Y-82290355D01*
X165938428Y-82583000D01*
X168783000Y-82583000D01*
X168783000Y-80825000D01*
X169037000Y-80825000D01*
X169037000Y-82583000D01*
X171881572Y-82583000D01*
X171997695Y-82290355D01*
X171950114Y-82105975D01*
X171797878Y-81768347D01*
X171582699Y-81466906D01*
X171312847Y-81213237D01*
X170998691Y-81017088D01*
X170652305Y-80885996D01*
X170287000Y-80825000D01*
X169037000Y-80825000D01*
X168783000Y-80825000D01*
X167533000Y-80825000D01*
X167167695Y-80885996D01*
X166821309Y-81017088D01*
X166507153Y-81213237D01*
X166237301Y-81466906D01*
X166022122Y-81768347D01*
X165869886Y-82105975D01*
X165822305Y-82290355D01*
X160119331Y-82290355D01*
X160181285Y-82190258D01*
X160112096Y-81907255D01*
X159989025Y-81643188D01*
X159816802Y-81408205D01*
X159602046Y-81211336D01*
X159353009Y-81060146D01*
X159079261Y-80960446D01*
X159066890Y-80958524D01*
X158837000Y-81079845D01*
X158583000Y-81079845D01*
X158353110Y-80958524D01*
X158340739Y-80960446D01*
X158066991Y-81060146D01*
X157817954Y-81211336D01*
X157607000Y-81404720D01*
X157607000Y-80772000D01*
X157604560Y-80747224D01*
X157597333Y-80723399D01*
X157585597Y-80701443D01*
X157569803Y-80682197D01*
X157550557Y-80666403D01*
X157528601Y-80654667D01*
X157504776Y-80647440D01*
X157480000Y-80645000D01*
X154940000Y-80645000D01*
X154915224Y-80647440D01*
X154891399Y-80654667D01*
X154869443Y-80666403D01*
X154850197Y-80682197D01*
X152818197Y-82714197D01*
X152802403Y-82733443D01*
X152790667Y-82755399D01*
X152783440Y-82779224D01*
X152781000Y-82804000D01*
X152781000Y-87831394D01*
X151839394Y-88773000D01*
X143816606Y-88773000D01*
X142875000Y-87831394D01*
X142875000Y-84127000D01*
X143140000Y-84127000D01*
X143140000Y-85877000D01*
X143210604Y-86339850D01*
X143370148Y-86780032D01*
X143612502Y-87180631D01*
X143928352Y-87526252D01*
X144305561Y-87803612D01*
X144729632Y-88002053D01*
X145026997Y-88082427D01*
X145398000Y-87972625D01*
X145398000Y-84127000D01*
X145652000Y-84127000D01*
X145652000Y-87972625D01*
X146023003Y-88082427D01*
X146320368Y-88002053D01*
X146744439Y-87803612D01*
X147121648Y-87526252D01*
X147437498Y-87180631D01*
X147679852Y-86780032D01*
X147839396Y-86339850D01*
X147910000Y-85877000D01*
X147910000Y-84127000D01*
X145652000Y-84127000D01*
X145398000Y-84127000D01*
X143140000Y-84127000D01*
X142875000Y-84127000D01*
X142875000Y-82123000D01*
X143140000Y-82123000D01*
X143140000Y-83873000D01*
X145398000Y-83873000D01*
X145398000Y-80027375D01*
X145652000Y-80027375D01*
X145652000Y-83873000D01*
X147910000Y-83873000D01*
X147910000Y-82123000D01*
X147839396Y-81660150D01*
X147679852Y-81219968D01*
X147437498Y-80819369D01*
X147121648Y-80473748D01*
X146744439Y-80196388D01*
X146320368Y-79997947D01*
X146023003Y-79917573D01*
X145652000Y-80027375D01*
X145398000Y-80027375D01*
X145026997Y-79917573D01*
X144729632Y-79997947D01*
X144305561Y-80196388D01*
X143928352Y-80473748D01*
X143612502Y-80819369D01*
X143370148Y-81219968D01*
X143210604Y-81660150D01*
X143140000Y-82123000D01*
X142875000Y-82123000D01*
X142875000Y-74220606D01*
X145360606Y-71735000D01*
X165989000Y-71735000D01*
X165989000Y-77216000D01*
G04 #@! TD*
M02*
