G04 #@! TF.GenerationSoftware,KiCad,Pcbnew,5.1.6-c6e7f7d~87~ubuntu18.04.1*
G04 #@! TF.CreationDate,2020-08-31T14:31:46+09:00*
G04 #@! TF.ProjectId,adamr2_emg_board,6164616d-7232-45f6-956d-675f626f6172,rev?*
G04 #@! TF.SameCoordinates,Original*
G04 #@! TF.FileFunction,Copper,L1,Top*
G04 #@! TF.FilePolarity,Positive*
%FSLAX46Y46*%
G04 Gerber Fmt 4.6, Leading zero omitted, Abs format (unit mm)*
G04 Created by KiCad (PCBNEW 5.1.6-c6e7f7d~87~ubuntu18.04.1) date 2020-08-31 14:31:46*
%MOMM*%
%LPD*%
G01*
G04 APERTURE LIST*
G04 #@! TA.AperFunction,ComponentPad*
%ADD10O,5.000000X2.500000*%
G04 #@! TD*
G04 #@! TA.AperFunction,ComponentPad*
%ADD11C,2.100000*%
G04 #@! TD*
G04 #@! TA.AperFunction,ComponentPad*
%ADD12R,2.100000X2.100000*%
G04 #@! TD*
G04 #@! TA.AperFunction,ComponentPad*
%ADD13O,2.000000X1.700000*%
G04 #@! TD*
G04 #@! TA.AperFunction,ComponentPad*
%ADD14O,7.000000X3.500000*%
G04 #@! TD*
G04 #@! TA.AperFunction,Conductor*
%ADD15C,1.000000*%
G04 #@! TD*
G04 #@! TA.AperFunction,Conductor*
%ADD16C,0.254000*%
G04 #@! TD*
G04 APERTURE END LIST*
D10*
G04 #@! TO.P,F1,2*
G04 #@! TO.N,Net-(F1-Pad2)*
X172720000Y-102710000D03*
G04 #@! TO.P,F1,1*
G04 #@! TO.N,VCC*
X172720000Y-82710000D03*
G04 #@! TD*
D11*
G04 #@! TO.P,K1,8*
G04 #@! TO.N,Net-(J2-Pad1)*
X146050000Y-93920000D03*
G04 #@! TO.P,K1,4*
G04 #@! TO.N,Net-(F1-Pad2)*
X163830000Y-104080000D03*
G04 #@! TO.P,K1,3*
G04 #@! TO.N,Net-(J1-Pad2)*
X156210000Y-104080000D03*
D12*
G04 #@! TO.P,K1,1*
G04 #@! TO.N,GND*
X146050000Y-104080000D03*
G04 #@! TD*
D13*
G04 #@! TO.P,J2,2*
G04 #@! TO.N,VCC*
X153670000Y-81320000D03*
G04 #@! TO.P,J2,1*
G04 #@! TO.N,Net-(J2-Pad1)*
G04 #@! TA.AperFunction,ComponentPad*
G36*
G01*
X154420000Y-84670000D02*
X152920000Y-84670000D01*
G75*
G02*
X152670000Y-84420000I0J250000D01*
G01*
X152670000Y-83220000D01*
G75*
G02*
X152920000Y-82970000I250000J0D01*
G01*
X154420000Y-82970000D01*
G75*
G02*
X154670000Y-83220000I0J-250000D01*
G01*
X154670000Y-84420000D01*
G75*
G02*
X154420000Y-84670000I-250000J0D01*
G01*
G37*
G04 #@! TD.AperFunction*
G04 #@! TD*
D14*
G04 #@! TO.P,J1,1*
G04 #@! TO.N,GND*
X133350000Y-102235000D03*
G04 #@! TO.P,J1,2*
G04 #@! TO.N,Net-(J1-Pad2)*
X133350000Y-95885000D03*
G04 #@! TO.P,J1,3*
G04 #@! TO.N,GND*
X133350000Y-89535000D03*
G04 #@! TO.P,J1,4*
G04 #@! TO.N,VCC*
X133350000Y-83185000D03*
G04 #@! TD*
D15*
G04 #@! TO.N,Net-(F1-Pad2)*
X163890000Y-104080000D02*
X163830000Y-104080000D01*
G04 #@! TO.N,Net-(J2-Pad1)*
X153670000Y-86300000D02*
X146050000Y-93920000D01*
X153670000Y-83820000D02*
X153670000Y-86300000D01*
G04 #@! TD*
D16*
G04 #@! TO.N,Net-(J1-Pad2)*
G36*
X144174436Y-96093303D02*
G01*
X144192172Y-96110775D01*
X144212976Y-96124451D01*
X144236048Y-96133805D01*
X144272000Y-96139000D01*
X153613820Y-96139000D01*
X158623000Y-101649098D01*
X158623000Y-105357394D01*
X157935394Y-106045000D01*
X151949628Y-106045000D01*
X151254936Y-105251066D01*
X155218539Y-105251066D01*
X155320339Y-105520579D01*
X155618477Y-105666463D01*
X155939346Y-105751380D01*
X156270617Y-105772066D01*
X156599557Y-105727728D01*
X156913527Y-105620069D01*
X157099661Y-105520579D01*
X157201461Y-105251066D01*
X156210000Y-104259605D01*
X155218539Y-105251066D01*
X151254936Y-105251066D01*
X150283293Y-104140617D01*
X154517934Y-104140617D01*
X154562272Y-104469557D01*
X154669931Y-104783527D01*
X154769421Y-104969661D01*
X155038934Y-105071461D01*
X156030395Y-104080000D01*
X156389605Y-104080000D01*
X157381066Y-105071461D01*
X157650579Y-104969661D01*
X157796463Y-104671523D01*
X157881380Y-104350654D01*
X157902066Y-104019383D01*
X157857728Y-103690443D01*
X157750069Y-103376473D01*
X157650579Y-103190339D01*
X157381066Y-103088539D01*
X156389605Y-104080000D01*
X156030395Y-104080000D01*
X155038934Y-103088539D01*
X154769421Y-103190339D01*
X154623537Y-103488477D01*
X154538620Y-103809346D01*
X154517934Y-104140617D01*
X150283293Y-104140617D01*
X149205571Y-102908934D01*
X155218539Y-102908934D01*
X156210000Y-103900395D01*
X157201461Y-102908934D01*
X157099661Y-102639421D01*
X156801523Y-102493537D01*
X156480654Y-102408620D01*
X156149383Y-102387934D01*
X155820443Y-102432272D01*
X155506473Y-102539931D01*
X155320339Y-102639421D01*
X155218539Y-102908934D01*
X149205571Y-102908934D01*
X148431577Y-102024370D01*
X148413425Y-102007331D01*
X148392298Y-101994160D01*
X148369007Y-101985364D01*
X148336000Y-101981000D01*
X139759483Y-101981000D01*
X137257564Y-98978697D01*
X137239828Y-98961225D01*
X137219024Y-98947549D01*
X137195952Y-98938195D01*
X137160000Y-98933000D01*
X129592606Y-98933000D01*
X128651000Y-97991394D01*
X128651000Y-96383003D01*
X129267573Y-96383003D01*
X129347947Y-96680368D01*
X129546388Y-97104439D01*
X129823748Y-97481648D01*
X130169369Y-97797498D01*
X130569968Y-98039852D01*
X131010150Y-98199396D01*
X131473000Y-98270000D01*
X133223000Y-98270000D01*
X133223000Y-96012000D01*
X133477000Y-96012000D01*
X133477000Y-98270000D01*
X135227000Y-98270000D01*
X135689850Y-98199396D01*
X136130032Y-98039852D01*
X136530631Y-97797498D01*
X136876252Y-97481648D01*
X137153612Y-97104439D01*
X137352053Y-96680368D01*
X137432427Y-96383003D01*
X137322625Y-96012000D01*
X133477000Y-96012000D01*
X133223000Y-96012000D01*
X129377375Y-96012000D01*
X129267573Y-96383003D01*
X128651000Y-96383003D01*
X128651000Y-95386997D01*
X129267573Y-95386997D01*
X129377375Y-95758000D01*
X133223000Y-95758000D01*
X133223000Y-93500000D01*
X133477000Y-93500000D01*
X133477000Y-95758000D01*
X137322625Y-95758000D01*
X137432427Y-95386997D01*
X137352053Y-95089632D01*
X137153612Y-94665561D01*
X136876252Y-94288352D01*
X136530631Y-93972502D01*
X136130032Y-93730148D01*
X135689850Y-93570604D01*
X135227000Y-93500000D01*
X133477000Y-93500000D01*
X133223000Y-93500000D01*
X131473000Y-93500000D01*
X131010150Y-93570604D01*
X130569968Y-93730148D01*
X130169369Y-93972502D01*
X129823748Y-94288352D01*
X129546388Y-94665561D01*
X129347947Y-95089632D01*
X129267573Y-95386997D01*
X128651000Y-95386997D01*
X128651000Y-94032606D01*
X129592606Y-93091000D01*
X141672517Y-93091000D01*
X144174436Y-96093303D01*
G37*
X144174436Y-96093303D02*
X144192172Y-96110775D01*
X144212976Y-96124451D01*
X144236048Y-96133805D01*
X144272000Y-96139000D01*
X153613820Y-96139000D01*
X158623000Y-101649098D01*
X158623000Y-105357394D01*
X157935394Y-106045000D01*
X151949628Y-106045000D01*
X151254936Y-105251066D01*
X155218539Y-105251066D01*
X155320339Y-105520579D01*
X155618477Y-105666463D01*
X155939346Y-105751380D01*
X156270617Y-105772066D01*
X156599557Y-105727728D01*
X156913527Y-105620069D01*
X157099661Y-105520579D01*
X157201461Y-105251066D01*
X156210000Y-104259605D01*
X155218539Y-105251066D01*
X151254936Y-105251066D01*
X150283293Y-104140617D01*
X154517934Y-104140617D01*
X154562272Y-104469557D01*
X154669931Y-104783527D01*
X154769421Y-104969661D01*
X155038934Y-105071461D01*
X156030395Y-104080000D01*
X156389605Y-104080000D01*
X157381066Y-105071461D01*
X157650579Y-104969661D01*
X157796463Y-104671523D01*
X157881380Y-104350654D01*
X157902066Y-104019383D01*
X157857728Y-103690443D01*
X157750069Y-103376473D01*
X157650579Y-103190339D01*
X157381066Y-103088539D01*
X156389605Y-104080000D01*
X156030395Y-104080000D01*
X155038934Y-103088539D01*
X154769421Y-103190339D01*
X154623537Y-103488477D01*
X154538620Y-103809346D01*
X154517934Y-104140617D01*
X150283293Y-104140617D01*
X149205571Y-102908934D01*
X155218539Y-102908934D01*
X156210000Y-103900395D01*
X157201461Y-102908934D01*
X157099661Y-102639421D01*
X156801523Y-102493537D01*
X156480654Y-102408620D01*
X156149383Y-102387934D01*
X155820443Y-102432272D01*
X155506473Y-102539931D01*
X155320339Y-102639421D01*
X155218539Y-102908934D01*
X149205571Y-102908934D01*
X148431577Y-102024370D01*
X148413425Y-102007331D01*
X148392298Y-101994160D01*
X148369007Y-101985364D01*
X148336000Y-101981000D01*
X139759483Y-101981000D01*
X137257564Y-98978697D01*
X137239828Y-98961225D01*
X137219024Y-98947549D01*
X137195952Y-98938195D01*
X137160000Y-98933000D01*
X129592606Y-98933000D01*
X128651000Y-97991394D01*
X128651000Y-96383003D01*
X129267573Y-96383003D01*
X129347947Y-96680368D01*
X129546388Y-97104439D01*
X129823748Y-97481648D01*
X130169369Y-97797498D01*
X130569968Y-98039852D01*
X131010150Y-98199396D01*
X131473000Y-98270000D01*
X133223000Y-98270000D01*
X133223000Y-96012000D01*
X133477000Y-96012000D01*
X133477000Y-98270000D01*
X135227000Y-98270000D01*
X135689850Y-98199396D01*
X136130032Y-98039852D01*
X136530631Y-97797498D01*
X136876252Y-97481648D01*
X137153612Y-97104439D01*
X137352053Y-96680368D01*
X137432427Y-96383003D01*
X137322625Y-96012000D01*
X133477000Y-96012000D01*
X133223000Y-96012000D01*
X129377375Y-96012000D01*
X129267573Y-96383003D01*
X128651000Y-96383003D01*
X128651000Y-95386997D01*
X129267573Y-95386997D01*
X129377375Y-95758000D01*
X133223000Y-95758000D01*
X133223000Y-93500000D01*
X133477000Y-93500000D01*
X133477000Y-95758000D01*
X137322625Y-95758000D01*
X137432427Y-95386997D01*
X137352053Y-95089632D01*
X137153612Y-94665561D01*
X136876252Y-94288352D01*
X136530631Y-93972502D01*
X136130032Y-93730148D01*
X135689850Y-93570604D01*
X135227000Y-93500000D01*
X133477000Y-93500000D01*
X133223000Y-93500000D01*
X131473000Y-93500000D01*
X131010150Y-93570604D01*
X130569968Y-93730148D01*
X130169369Y-93972502D01*
X129823748Y-94288352D01*
X129546388Y-94665561D01*
X129347947Y-95089632D01*
X129267573Y-95386997D01*
X128651000Y-95386997D01*
X128651000Y-94032606D01*
X129592606Y-93091000D01*
X141672517Y-93091000D01*
X144174436Y-96093303D01*
G04 #@! TO.N,Net-(F1-Pad2)*
G36*
X176149000Y-99620606D02*
G01*
X176149000Y-103579394D01*
X174699394Y-105029000D01*
X166116000Y-105029000D01*
X166091224Y-105031440D01*
X166067399Y-105038667D01*
X166045443Y-105050403D01*
X166026197Y-105066197D01*
X165047394Y-106045000D01*
X162612606Y-106045000D01*
X161818672Y-105251066D01*
X162838539Y-105251066D01*
X162940339Y-105520579D01*
X163238477Y-105666463D01*
X163559346Y-105751380D01*
X163890617Y-105772066D01*
X164219557Y-105727728D01*
X164533527Y-105620069D01*
X164719661Y-105520579D01*
X164821461Y-105251066D01*
X163830000Y-104259605D01*
X162838539Y-105251066D01*
X161818672Y-105251066D01*
X161671000Y-105103394D01*
X161671000Y-104140617D01*
X162137934Y-104140617D01*
X162182272Y-104469557D01*
X162289931Y-104783527D01*
X162389421Y-104969661D01*
X162658934Y-105071461D01*
X163650395Y-104080000D01*
X164009605Y-104080000D01*
X165001066Y-105071461D01*
X165270579Y-104969661D01*
X165416463Y-104671523D01*
X165501380Y-104350654D01*
X165522066Y-104019383D01*
X165477728Y-103690443D01*
X165370069Y-103376473D01*
X165270579Y-103190339D01*
X165109894Y-103129645D01*
X169632305Y-103129645D01*
X169679886Y-103314025D01*
X169832122Y-103651653D01*
X170047301Y-103953094D01*
X170317153Y-104206763D01*
X170631309Y-104402912D01*
X170977695Y-104534004D01*
X171343000Y-104595000D01*
X172593000Y-104595000D01*
X172593000Y-102837000D01*
X172847000Y-102837000D01*
X172847000Y-104595000D01*
X174097000Y-104595000D01*
X174462305Y-104534004D01*
X174808691Y-104402912D01*
X175122847Y-104206763D01*
X175392699Y-103953094D01*
X175607878Y-103651653D01*
X175760114Y-103314025D01*
X175807695Y-103129645D01*
X175691572Y-102837000D01*
X172847000Y-102837000D01*
X172593000Y-102837000D01*
X169748428Y-102837000D01*
X169632305Y-103129645D01*
X165109894Y-103129645D01*
X165001066Y-103088539D01*
X164009605Y-104080000D01*
X163650395Y-104080000D01*
X162658934Y-103088539D01*
X162389421Y-103190339D01*
X162243537Y-103488477D01*
X162158620Y-103809346D01*
X162137934Y-104140617D01*
X161671000Y-104140617D01*
X161671000Y-102908934D01*
X162838539Y-102908934D01*
X163830000Y-103900395D01*
X164821461Y-102908934D01*
X164719661Y-102639421D01*
X164421523Y-102493537D01*
X164100654Y-102408620D01*
X163769383Y-102387934D01*
X163440443Y-102432272D01*
X163126473Y-102539931D01*
X162940339Y-102639421D01*
X162838539Y-102908934D01*
X161671000Y-102908934D01*
X161671000Y-102290355D01*
X169632305Y-102290355D01*
X169748428Y-102583000D01*
X172593000Y-102583000D01*
X172593000Y-100825000D01*
X172847000Y-100825000D01*
X172847000Y-102583000D01*
X175691572Y-102583000D01*
X175807695Y-102290355D01*
X175760114Y-102105975D01*
X175607878Y-101768347D01*
X175392699Y-101466906D01*
X175122847Y-101213237D01*
X174808691Y-101017088D01*
X174462305Y-100885996D01*
X174097000Y-100825000D01*
X172847000Y-100825000D01*
X172593000Y-100825000D01*
X171343000Y-100825000D01*
X170977695Y-100885996D01*
X170631309Y-101017088D01*
X170317153Y-101213237D01*
X170047301Y-101466906D01*
X169832122Y-101768347D01*
X169679886Y-102105975D01*
X169632305Y-102290355D01*
X161671000Y-102290355D01*
X161671000Y-99620606D01*
X162612606Y-98679000D01*
X175207394Y-98679000D01*
X176149000Y-99620606D01*
G37*
X176149000Y-99620606D02*
X176149000Y-103579394D01*
X174699394Y-105029000D01*
X166116000Y-105029000D01*
X166091224Y-105031440D01*
X166067399Y-105038667D01*
X166045443Y-105050403D01*
X166026197Y-105066197D01*
X165047394Y-106045000D01*
X162612606Y-106045000D01*
X161818672Y-105251066D01*
X162838539Y-105251066D01*
X162940339Y-105520579D01*
X163238477Y-105666463D01*
X163559346Y-105751380D01*
X163890617Y-105772066D01*
X164219557Y-105727728D01*
X164533527Y-105620069D01*
X164719661Y-105520579D01*
X164821461Y-105251066D01*
X163830000Y-104259605D01*
X162838539Y-105251066D01*
X161818672Y-105251066D01*
X161671000Y-105103394D01*
X161671000Y-104140617D01*
X162137934Y-104140617D01*
X162182272Y-104469557D01*
X162289931Y-104783527D01*
X162389421Y-104969661D01*
X162658934Y-105071461D01*
X163650395Y-104080000D01*
X164009605Y-104080000D01*
X165001066Y-105071461D01*
X165270579Y-104969661D01*
X165416463Y-104671523D01*
X165501380Y-104350654D01*
X165522066Y-104019383D01*
X165477728Y-103690443D01*
X165370069Y-103376473D01*
X165270579Y-103190339D01*
X165109894Y-103129645D01*
X169632305Y-103129645D01*
X169679886Y-103314025D01*
X169832122Y-103651653D01*
X170047301Y-103953094D01*
X170317153Y-104206763D01*
X170631309Y-104402912D01*
X170977695Y-104534004D01*
X171343000Y-104595000D01*
X172593000Y-104595000D01*
X172593000Y-102837000D01*
X172847000Y-102837000D01*
X172847000Y-104595000D01*
X174097000Y-104595000D01*
X174462305Y-104534004D01*
X174808691Y-104402912D01*
X175122847Y-104206763D01*
X175392699Y-103953094D01*
X175607878Y-103651653D01*
X175760114Y-103314025D01*
X175807695Y-103129645D01*
X175691572Y-102837000D01*
X172847000Y-102837000D01*
X172593000Y-102837000D01*
X169748428Y-102837000D01*
X169632305Y-103129645D01*
X165109894Y-103129645D01*
X165001066Y-103088539D01*
X164009605Y-104080000D01*
X163650395Y-104080000D01*
X162658934Y-103088539D01*
X162389421Y-103190339D01*
X162243537Y-103488477D01*
X162158620Y-103809346D01*
X162137934Y-104140617D01*
X161671000Y-104140617D01*
X161671000Y-102908934D01*
X162838539Y-102908934D01*
X163830000Y-103900395D01*
X164821461Y-102908934D01*
X164719661Y-102639421D01*
X164421523Y-102493537D01*
X164100654Y-102408620D01*
X163769383Y-102387934D01*
X163440443Y-102432272D01*
X163126473Y-102539931D01*
X162940339Y-102639421D01*
X162838539Y-102908934D01*
X161671000Y-102908934D01*
X161671000Y-102290355D01*
X169632305Y-102290355D01*
X169748428Y-102583000D01*
X172593000Y-102583000D01*
X172593000Y-100825000D01*
X172847000Y-100825000D01*
X172847000Y-102583000D01*
X175691572Y-102583000D01*
X175807695Y-102290355D01*
X175760114Y-102105975D01*
X175607878Y-101768347D01*
X175392699Y-101466906D01*
X175122847Y-101213237D01*
X174808691Y-101017088D01*
X174462305Y-100885996D01*
X174097000Y-100825000D01*
X172847000Y-100825000D01*
X172593000Y-100825000D01*
X171343000Y-100825000D01*
X170977695Y-100885996D01*
X170631309Y-101017088D01*
X170317153Y-101213237D01*
X170047301Y-101466906D01*
X169832122Y-101768347D01*
X169679886Y-102105975D01*
X169632305Y-102290355D01*
X161671000Y-102290355D01*
X161671000Y-99620606D01*
X162612606Y-98679000D01*
X175207394Y-98679000D01*
X176149000Y-99620606D01*
G04 #@! TO.N,VCC*
G36*
X169873000Y-78000000D02*
G01*
X169875440Y-78024776D01*
X169882667Y-78048601D01*
X169894403Y-78070557D01*
X169910197Y-78089803D01*
X171910197Y-80089803D01*
X171929443Y-80105597D01*
X171951399Y-80117333D01*
X171975224Y-80124560D01*
X172000000Y-80127000D01*
X178265001Y-80127000D01*
X178265000Y-105373000D01*
X175433026Y-105373000D01*
X176725013Y-104081013D01*
X176803983Y-103984787D01*
X176862664Y-103875004D01*
X176898799Y-103755882D01*
X176911000Y-103632000D01*
X176911000Y-99568000D01*
X176898799Y-99444118D01*
X176862664Y-99324996D01*
X176803983Y-99215213D01*
X176725013Y-99118987D01*
X175709013Y-98102987D01*
X175612787Y-98024017D01*
X175503004Y-97965336D01*
X175383882Y-97929201D01*
X175260000Y-97917000D01*
X162560000Y-97917000D01*
X162436118Y-97929201D01*
X162316996Y-97965336D01*
X162207213Y-98024017D01*
X162110987Y-98102987D01*
X161094987Y-99118987D01*
X161016017Y-99215213D01*
X160957336Y-99324996D01*
X160921201Y-99444118D01*
X160909000Y-99568000D01*
X160909000Y-105156000D01*
X160921201Y-105279882D01*
X160957336Y-105399004D01*
X161016017Y-105508787D01*
X161094987Y-105605013D01*
X162110987Y-106621013D01*
X162207213Y-106699983D01*
X162316996Y-106758664D01*
X162436118Y-106794799D01*
X162560000Y-106807000D01*
X165100000Y-106807000D01*
X165223882Y-106794799D01*
X165343004Y-106758664D01*
X165452787Y-106699983D01*
X165549013Y-106621013D01*
X166379026Y-105791000D01*
X173029394Y-105791000D01*
X170910197Y-107910197D01*
X170894403Y-107929443D01*
X170882667Y-107951399D01*
X170875440Y-107975224D01*
X170873000Y-108000000D01*
X170873000Y-113265000D01*
X129127000Y-113265000D01*
X129127000Y-107000000D01*
X129124560Y-106975224D01*
X129117333Y-106951399D01*
X129105597Y-106929443D01*
X129089803Y-106910197D01*
X128089803Y-105910197D01*
X128070557Y-105894403D01*
X128048601Y-105882667D01*
X128024776Y-105875440D01*
X128000000Y-105873000D01*
X121735000Y-105873000D01*
X121735000Y-102235000D01*
X129203461Y-102235000D01*
X129249510Y-102702542D01*
X129385887Y-103152116D01*
X129607351Y-103566446D01*
X129905391Y-103929609D01*
X130268554Y-104227649D01*
X130682884Y-104449113D01*
X131132458Y-104585490D01*
X131482843Y-104620000D01*
X135217157Y-104620000D01*
X135567542Y-104585490D01*
X136017116Y-104449113D01*
X136431446Y-104227649D01*
X136794609Y-103929609D01*
X137092649Y-103566446D01*
X137314113Y-103152116D01*
X137450490Y-102702542D01*
X137496539Y-102235000D01*
X137450490Y-101767458D01*
X137314113Y-101317884D01*
X137092649Y-100903554D01*
X136794609Y-100540391D01*
X136431446Y-100242351D01*
X136017116Y-100020887D01*
X135567542Y-99884510D01*
X135217157Y-99850000D01*
X131482843Y-99850000D01*
X131132458Y-99884510D01*
X130682884Y-100020887D01*
X130268554Y-100242351D01*
X129905391Y-100540391D01*
X129607351Y-100903554D01*
X129385887Y-101317884D01*
X129249510Y-101767458D01*
X129203461Y-102235000D01*
X121735000Y-102235000D01*
X121735000Y-93980000D01*
X127889000Y-93980000D01*
X127889000Y-98044000D01*
X127901201Y-98167882D01*
X127937336Y-98287004D01*
X127996017Y-98396787D01*
X128074987Y-98493013D01*
X129090987Y-99509013D01*
X129187213Y-99587983D01*
X129296996Y-99646664D01*
X129416118Y-99682799D01*
X129540000Y-99695000D01*
X136862581Y-99695000D01*
X139212179Y-102514517D01*
X139347213Y-102635983D01*
X139456996Y-102694664D01*
X139576118Y-102730799D01*
X139700000Y-102743000D01*
X144433386Y-102743000D01*
X144410498Y-102785820D01*
X144374188Y-102905518D01*
X144361928Y-103030000D01*
X144361928Y-105130000D01*
X144374188Y-105254482D01*
X144410498Y-105374180D01*
X144469463Y-105484494D01*
X144548815Y-105581185D01*
X144645506Y-105660537D01*
X144755820Y-105719502D01*
X144875518Y-105755812D01*
X145000000Y-105768072D01*
X147100000Y-105768072D01*
X147224482Y-105755812D01*
X147344180Y-105719502D01*
X147454494Y-105660537D01*
X147551185Y-105581185D01*
X147630537Y-105484494D01*
X147689502Y-105374180D01*
X147725812Y-105254482D01*
X147738072Y-105130000D01*
X147738072Y-103030000D01*
X147725812Y-102905518D01*
X147689502Y-102785820D01*
X147666614Y-102743000D01*
X148047858Y-102743000D01*
X151414114Y-106590150D01*
X151539213Y-106699983D01*
X151648996Y-106758664D01*
X151768118Y-106794799D01*
X151892000Y-106807000D01*
X157988000Y-106807000D01*
X158111882Y-106794799D01*
X158231004Y-106758664D01*
X158340787Y-106699983D01*
X158437013Y-106621013D01*
X159199013Y-105859013D01*
X159277983Y-105762787D01*
X159336664Y-105653004D01*
X159372799Y-105533882D01*
X159385000Y-105410000D01*
X159385000Y-101600000D01*
X159377986Y-101505881D01*
X159347558Y-101385176D01*
X159294166Y-101272726D01*
X159219862Y-101172853D01*
X154139862Y-95584853D01*
X154022787Y-95484017D01*
X153913004Y-95425336D01*
X153793882Y-95389201D01*
X153670000Y-95377000D01*
X149404606Y-95377000D01*
X147801369Y-93773763D01*
X149085260Y-92489872D01*
X170485000Y-92489872D01*
X170485000Y-92930128D01*
X170570890Y-93361925D01*
X170739369Y-93768669D01*
X170983962Y-94134729D01*
X171295271Y-94446038D01*
X171661331Y-94690631D01*
X172068075Y-94859110D01*
X172499872Y-94945000D01*
X172940128Y-94945000D01*
X173371925Y-94859110D01*
X173778669Y-94690631D01*
X174144729Y-94446038D01*
X174456038Y-94134729D01*
X174700631Y-93768669D01*
X174869110Y-93361925D01*
X174955000Y-92930128D01*
X174955000Y-92489872D01*
X174869110Y-92058075D01*
X174700631Y-91651331D01*
X174456038Y-91285271D01*
X174144729Y-90973962D01*
X173778669Y-90729369D01*
X173371925Y-90560890D01*
X172940128Y-90475000D01*
X172499872Y-90475000D01*
X172068075Y-90560890D01*
X171661331Y-90729369D01*
X171295271Y-90973962D01*
X170983962Y-91285271D01*
X170739369Y-91651331D01*
X170570890Y-92058075D01*
X170485000Y-92489872D01*
X149085260Y-92489872D01*
X154433141Y-87141991D01*
X154476449Y-87106449D01*
X154618284Y-86933623D01*
X154723676Y-86736447D01*
X154788577Y-86522499D01*
X154805000Y-86355752D01*
X154805000Y-86355743D01*
X154810490Y-86300001D01*
X154805000Y-86244259D01*
X154805000Y-85216339D01*
X154913386Y-85158405D01*
X155047962Y-85047962D01*
X155158405Y-84913386D01*
X155240472Y-84759850D01*
X155291008Y-84593254D01*
X155308072Y-84420000D01*
X155308072Y-83220000D01*
X155299173Y-83129645D01*
X169632305Y-83129645D01*
X169679886Y-83314025D01*
X169832122Y-83651653D01*
X170047301Y-83953094D01*
X170317153Y-84206763D01*
X170631309Y-84402912D01*
X170977695Y-84534004D01*
X171343000Y-84595000D01*
X172593000Y-84595000D01*
X172593000Y-82837000D01*
X172847000Y-82837000D01*
X172847000Y-84595000D01*
X174097000Y-84595000D01*
X174462305Y-84534004D01*
X174808691Y-84402912D01*
X175122847Y-84206763D01*
X175392699Y-83953094D01*
X175607878Y-83651653D01*
X175760114Y-83314025D01*
X175807695Y-83129645D01*
X175691572Y-82837000D01*
X172847000Y-82837000D01*
X172593000Y-82837000D01*
X169748428Y-82837000D01*
X169632305Y-83129645D01*
X155299173Y-83129645D01*
X155291008Y-83046746D01*
X155240472Y-82880150D01*
X155158405Y-82726614D01*
X155047962Y-82592038D01*
X154913386Y-82481595D01*
X154811407Y-82427086D01*
X154811795Y-82426802D01*
X154936877Y-82290355D01*
X169632305Y-82290355D01*
X169748428Y-82583000D01*
X172593000Y-82583000D01*
X172593000Y-80825000D01*
X172847000Y-80825000D01*
X172847000Y-82583000D01*
X175691572Y-82583000D01*
X175807695Y-82290355D01*
X175760114Y-82105975D01*
X175607878Y-81768347D01*
X175392699Y-81466906D01*
X175122847Y-81213237D01*
X174808691Y-81017088D01*
X174462305Y-80885996D01*
X174097000Y-80825000D01*
X172847000Y-80825000D01*
X172593000Y-80825000D01*
X171343000Y-80825000D01*
X170977695Y-80885996D01*
X170631309Y-81017088D01*
X170317153Y-81213237D01*
X170047301Y-81466906D01*
X169832122Y-81768347D01*
X169679886Y-82105975D01*
X169632305Y-82290355D01*
X154936877Y-82290355D01*
X155008664Y-82212046D01*
X155159854Y-81963009D01*
X155259554Y-81689261D01*
X155261476Y-81676890D01*
X155140155Y-81447000D01*
X153797000Y-81447000D01*
X153797000Y-81467000D01*
X153543000Y-81467000D01*
X153543000Y-81447000D01*
X152199845Y-81447000D01*
X152078524Y-81676890D01*
X152080446Y-81689261D01*
X152180146Y-81963009D01*
X152331336Y-82212046D01*
X152528205Y-82426802D01*
X152528593Y-82427086D01*
X152426614Y-82481595D01*
X152292038Y-82592038D01*
X152181595Y-82726614D01*
X152099528Y-82880150D01*
X152048992Y-83046746D01*
X152031928Y-83220000D01*
X152031928Y-84420000D01*
X152048992Y-84593254D01*
X152099528Y-84759850D01*
X152181595Y-84913386D01*
X152292038Y-85047962D01*
X152426614Y-85158405D01*
X152535001Y-85216339D01*
X152535001Y-85829867D01*
X146129869Y-92235000D01*
X145884042Y-92235000D01*
X145558504Y-92299754D01*
X145487897Y-92329000D01*
X129540000Y-92329000D01*
X129416118Y-92341201D01*
X129296996Y-92377336D01*
X129187213Y-92436017D01*
X129090987Y-92514987D01*
X128074987Y-93530987D01*
X127996017Y-93627213D01*
X127937336Y-93736996D01*
X127901201Y-93856118D01*
X127889000Y-93980000D01*
X121735000Y-93980000D01*
X121735000Y-89535000D01*
X129203461Y-89535000D01*
X129249510Y-90002542D01*
X129385887Y-90452116D01*
X129607351Y-90866446D01*
X129905391Y-91229609D01*
X130268554Y-91527649D01*
X130682884Y-91749113D01*
X131132458Y-91885490D01*
X131482843Y-91920000D01*
X135217157Y-91920000D01*
X135567542Y-91885490D01*
X136017116Y-91749113D01*
X136431446Y-91527649D01*
X136794609Y-91229609D01*
X137092649Y-90866446D01*
X137314113Y-90452116D01*
X137450490Y-90002542D01*
X137496539Y-89535000D01*
X137450490Y-89067458D01*
X137314113Y-88617884D01*
X137092649Y-88203554D01*
X136794609Y-87840391D01*
X136431446Y-87542351D01*
X136017116Y-87320887D01*
X135567542Y-87184510D01*
X135217157Y-87150000D01*
X131482843Y-87150000D01*
X131132458Y-87184510D01*
X130682884Y-87320887D01*
X130268554Y-87542351D01*
X129905391Y-87840391D01*
X129607351Y-88203554D01*
X129385887Y-88617884D01*
X129249510Y-89067458D01*
X129203461Y-89535000D01*
X121735000Y-89535000D01*
X121735000Y-83683003D01*
X129267573Y-83683003D01*
X129347947Y-83980368D01*
X129546388Y-84404439D01*
X129823748Y-84781648D01*
X130169369Y-85097498D01*
X130569968Y-85339852D01*
X131010150Y-85499396D01*
X131473000Y-85570000D01*
X133223000Y-85570000D01*
X133223000Y-83312000D01*
X133477000Y-83312000D01*
X133477000Y-85570000D01*
X135227000Y-85570000D01*
X135689850Y-85499396D01*
X136130032Y-85339852D01*
X136530631Y-85097498D01*
X136876252Y-84781648D01*
X137153612Y-84404439D01*
X137352053Y-83980368D01*
X137432427Y-83683003D01*
X137322625Y-83312000D01*
X133477000Y-83312000D01*
X133223000Y-83312000D01*
X129377375Y-83312000D01*
X129267573Y-83683003D01*
X121735000Y-83683003D01*
X121735000Y-82686997D01*
X129267573Y-82686997D01*
X129377375Y-83058000D01*
X133223000Y-83058000D01*
X133223000Y-80800000D01*
X133477000Y-80800000D01*
X133477000Y-83058000D01*
X137322625Y-83058000D01*
X137432427Y-82686997D01*
X137352053Y-82389632D01*
X137153612Y-81965561D01*
X136876252Y-81588352D01*
X136530631Y-81272502D01*
X136130032Y-81030148D01*
X135945075Y-80963110D01*
X152078524Y-80963110D01*
X152199845Y-81193000D01*
X153543000Y-81193000D01*
X153543000Y-79992768D01*
X153797000Y-79992768D01*
X153797000Y-81193000D01*
X155140155Y-81193000D01*
X155261476Y-80963110D01*
X155259554Y-80950739D01*
X155159854Y-80676991D01*
X155008664Y-80427954D01*
X154811795Y-80213198D01*
X154576812Y-80040975D01*
X154312745Y-79917904D01*
X154029742Y-79848715D01*
X153797000Y-79992768D01*
X153543000Y-79992768D01*
X153310258Y-79848715D01*
X153027255Y-79917904D01*
X152763188Y-80040975D01*
X152528205Y-80213198D01*
X152331336Y-80427954D01*
X152180146Y-80676991D01*
X152080446Y-80950739D01*
X152078524Y-80963110D01*
X135945075Y-80963110D01*
X135689850Y-80870604D01*
X135227000Y-80800000D01*
X133477000Y-80800000D01*
X133223000Y-80800000D01*
X131473000Y-80800000D01*
X131010150Y-80870604D01*
X130569968Y-81030148D01*
X130169369Y-81272502D01*
X129823748Y-81588352D01*
X129546388Y-81965561D01*
X129347947Y-82389632D01*
X129267573Y-82686997D01*
X121735000Y-82686997D01*
X121735000Y-80127000D01*
X127000000Y-80127000D01*
X127024776Y-80124560D01*
X127048601Y-80117333D01*
X127070557Y-80105597D01*
X127089803Y-80089803D01*
X129089803Y-78089803D01*
X129105597Y-78070557D01*
X129117333Y-78048601D01*
X129124560Y-78024776D01*
X129127000Y-78000000D01*
X129127000Y-72735000D01*
X169873000Y-72735000D01*
X169873000Y-78000000D01*
G37*
X169873000Y-78000000D02*
X169875440Y-78024776D01*
X169882667Y-78048601D01*
X169894403Y-78070557D01*
X169910197Y-78089803D01*
X171910197Y-80089803D01*
X171929443Y-80105597D01*
X171951399Y-80117333D01*
X171975224Y-80124560D01*
X172000000Y-80127000D01*
X178265001Y-80127000D01*
X178265000Y-105373000D01*
X175433026Y-105373000D01*
X176725013Y-104081013D01*
X176803983Y-103984787D01*
X176862664Y-103875004D01*
X176898799Y-103755882D01*
X176911000Y-103632000D01*
X176911000Y-99568000D01*
X176898799Y-99444118D01*
X176862664Y-99324996D01*
X176803983Y-99215213D01*
X176725013Y-99118987D01*
X175709013Y-98102987D01*
X175612787Y-98024017D01*
X175503004Y-97965336D01*
X175383882Y-97929201D01*
X175260000Y-97917000D01*
X162560000Y-97917000D01*
X162436118Y-97929201D01*
X162316996Y-97965336D01*
X162207213Y-98024017D01*
X162110987Y-98102987D01*
X161094987Y-99118987D01*
X161016017Y-99215213D01*
X160957336Y-99324996D01*
X160921201Y-99444118D01*
X160909000Y-99568000D01*
X160909000Y-105156000D01*
X160921201Y-105279882D01*
X160957336Y-105399004D01*
X161016017Y-105508787D01*
X161094987Y-105605013D01*
X162110987Y-106621013D01*
X162207213Y-106699983D01*
X162316996Y-106758664D01*
X162436118Y-106794799D01*
X162560000Y-106807000D01*
X165100000Y-106807000D01*
X165223882Y-106794799D01*
X165343004Y-106758664D01*
X165452787Y-106699983D01*
X165549013Y-106621013D01*
X166379026Y-105791000D01*
X173029394Y-105791000D01*
X170910197Y-107910197D01*
X170894403Y-107929443D01*
X170882667Y-107951399D01*
X170875440Y-107975224D01*
X170873000Y-108000000D01*
X170873000Y-113265000D01*
X129127000Y-113265000D01*
X129127000Y-107000000D01*
X129124560Y-106975224D01*
X129117333Y-106951399D01*
X129105597Y-106929443D01*
X129089803Y-106910197D01*
X128089803Y-105910197D01*
X128070557Y-105894403D01*
X128048601Y-105882667D01*
X128024776Y-105875440D01*
X128000000Y-105873000D01*
X121735000Y-105873000D01*
X121735000Y-102235000D01*
X129203461Y-102235000D01*
X129249510Y-102702542D01*
X129385887Y-103152116D01*
X129607351Y-103566446D01*
X129905391Y-103929609D01*
X130268554Y-104227649D01*
X130682884Y-104449113D01*
X131132458Y-104585490D01*
X131482843Y-104620000D01*
X135217157Y-104620000D01*
X135567542Y-104585490D01*
X136017116Y-104449113D01*
X136431446Y-104227649D01*
X136794609Y-103929609D01*
X137092649Y-103566446D01*
X137314113Y-103152116D01*
X137450490Y-102702542D01*
X137496539Y-102235000D01*
X137450490Y-101767458D01*
X137314113Y-101317884D01*
X137092649Y-100903554D01*
X136794609Y-100540391D01*
X136431446Y-100242351D01*
X136017116Y-100020887D01*
X135567542Y-99884510D01*
X135217157Y-99850000D01*
X131482843Y-99850000D01*
X131132458Y-99884510D01*
X130682884Y-100020887D01*
X130268554Y-100242351D01*
X129905391Y-100540391D01*
X129607351Y-100903554D01*
X129385887Y-101317884D01*
X129249510Y-101767458D01*
X129203461Y-102235000D01*
X121735000Y-102235000D01*
X121735000Y-93980000D01*
X127889000Y-93980000D01*
X127889000Y-98044000D01*
X127901201Y-98167882D01*
X127937336Y-98287004D01*
X127996017Y-98396787D01*
X128074987Y-98493013D01*
X129090987Y-99509013D01*
X129187213Y-99587983D01*
X129296996Y-99646664D01*
X129416118Y-99682799D01*
X129540000Y-99695000D01*
X136862581Y-99695000D01*
X139212179Y-102514517D01*
X139347213Y-102635983D01*
X139456996Y-102694664D01*
X139576118Y-102730799D01*
X139700000Y-102743000D01*
X144433386Y-102743000D01*
X144410498Y-102785820D01*
X144374188Y-102905518D01*
X144361928Y-103030000D01*
X144361928Y-105130000D01*
X144374188Y-105254482D01*
X144410498Y-105374180D01*
X144469463Y-105484494D01*
X144548815Y-105581185D01*
X144645506Y-105660537D01*
X144755820Y-105719502D01*
X144875518Y-105755812D01*
X145000000Y-105768072D01*
X147100000Y-105768072D01*
X147224482Y-105755812D01*
X147344180Y-105719502D01*
X147454494Y-105660537D01*
X147551185Y-105581185D01*
X147630537Y-105484494D01*
X147689502Y-105374180D01*
X147725812Y-105254482D01*
X147738072Y-105130000D01*
X147738072Y-103030000D01*
X147725812Y-102905518D01*
X147689502Y-102785820D01*
X147666614Y-102743000D01*
X148047858Y-102743000D01*
X151414114Y-106590150D01*
X151539213Y-106699983D01*
X151648996Y-106758664D01*
X151768118Y-106794799D01*
X151892000Y-106807000D01*
X157988000Y-106807000D01*
X158111882Y-106794799D01*
X158231004Y-106758664D01*
X158340787Y-106699983D01*
X158437013Y-106621013D01*
X159199013Y-105859013D01*
X159277983Y-105762787D01*
X159336664Y-105653004D01*
X159372799Y-105533882D01*
X159385000Y-105410000D01*
X159385000Y-101600000D01*
X159377986Y-101505881D01*
X159347558Y-101385176D01*
X159294166Y-101272726D01*
X159219862Y-101172853D01*
X154139862Y-95584853D01*
X154022787Y-95484017D01*
X153913004Y-95425336D01*
X153793882Y-95389201D01*
X153670000Y-95377000D01*
X149404606Y-95377000D01*
X147801369Y-93773763D01*
X149085260Y-92489872D01*
X170485000Y-92489872D01*
X170485000Y-92930128D01*
X170570890Y-93361925D01*
X170739369Y-93768669D01*
X170983962Y-94134729D01*
X171295271Y-94446038D01*
X171661331Y-94690631D01*
X172068075Y-94859110D01*
X172499872Y-94945000D01*
X172940128Y-94945000D01*
X173371925Y-94859110D01*
X173778669Y-94690631D01*
X174144729Y-94446038D01*
X174456038Y-94134729D01*
X174700631Y-93768669D01*
X174869110Y-93361925D01*
X174955000Y-92930128D01*
X174955000Y-92489872D01*
X174869110Y-92058075D01*
X174700631Y-91651331D01*
X174456038Y-91285271D01*
X174144729Y-90973962D01*
X173778669Y-90729369D01*
X173371925Y-90560890D01*
X172940128Y-90475000D01*
X172499872Y-90475000D01*
X172068075Y-90560890D01*
X171661331Y-90729369D01*
X171295271Y-90973962D01*
X170983962Y-91285271D01*
X170739369Y-91651331D01*
X170570890Y-92058075D01*
X170485000Y-92489872D01*
X149085260Y-92489872D01*
X154433141Y-87141991D01*
X154476449Y-87106449D01*
X154618284Y-86933623D01*
X154723676Y-86736447D01*
X154788577Y-86522499D01*
X154805000Y-86355752D01*
X154805000Y-86355743D01*
X154810490Y-86300001D01*
X154805000Y-86244259D01*
X154805000Y-85216339D01*
X154913386Y-85158405D01*
X155047962Y-85047962D01*
X155158405Y-84913386D01*
X155240472Y-84759850D01*
X155291008Y-84593254D01*
X155308072Y-84420000D01*
X155308072Y-83220000D01*
X155299173Y-83129645D01*
X169632305Y-83129645D01*
X169679886Y-83314025D01*
X169832122Y-83651653D01*
X170047301Y-83953094D01*
X170317153Y-84206763D01*
X170631309Y-84402912D01*
X170977695Y-84534004D01*
X171343000Y-84595000D01*
X172593000Y-84595000D01*
X172593000Y-82837000D01*
X172847000Y-82837000D01*
X172847000Y-84595000D01*
X174097000Y-84595000D01*
X174462305Y-84534004D01*
X174808691Y-84402912D01*
X175122847Y-84206763D01*
X175392699Y-83953094D01*
X175607878Y-83651653D01*
X175760114Y-83314025D01*
X175807695Y-83129645D01*
X175691572Y-82837000D01*
X172847000Y-82837000D01*
X172593000Y-82837000D01*
X169748428Y-82837000D01*
X169632305Y-83129645D01*
X155299173Y-83129645D01*
X155291008Y-83046746D01*
X155240472Y-82880150D01*
X155158405Y-82726614D01*
X155047962Y-82592038D01*
X154913386Y-82481595D01*
X154811407Y-82427086D01*
X154811795Y-82426802D01*
X154936877Y-82290355D01*
X169632305Y-82290355D01*
X169748428Y-82583000D01*
X172593000Y-82583000D01*
X172593000Y-80825000D01*
X172847000Y-80825000D01*
X172847000Y-82583000D01*
X175691572Y-82583000D01*
X175807695Y-82290355D01*
X175760114Y-82105975D01*
X175607878Y-81768347D01*
X175392699Y-81466906D01*
X175122847Y-81213237D01*
X174808691Y-81017088D01*
X174462305Y-80885996D01*
X174097000Y-80825000D01*
X172847000Y-80825000D01*
X172593000Y-80825000D01*
X171343000Y-80825000D01*
X170977695Y-80885996D01*
X170631309Y-81017088D01*
X170317153Y-81213237D01*
X170047301Y-81466906D01*
X169832122Y-81768347D01*
X169679886Y-82105975D01*
X169632305Y-82290355D01*
X154936877Y-82290355D01*
X155008664Y-82212046D01*
X155159854Y-81963009D01*
X155259554Y-81689261D01*
X155261476Y-81676890D01*
X155140155Y-81447000D01*
X153797000Y-81447000D01*
X153797000Y-81467000D01*
X153543000Y-81467000D01*
X153543000Y-81447000D01*
X152199845Y-81447000D01*
X152078524Y-81676890D01*
X152080446Y-81689261D01*
X152180146Y-81963009D01*
X152331336Y-82212046D01*
X152528205Y-82426802D01*
X152528593Y-82427086D01*
X152426614Y-82481595D01*
X152292038Y-82592038D01*
X152181595Y-82726614D01*
X152099528Y-82880150D01*
X152048992Y-83046746D01*
X152031928Y-83220000D01*
X152031928Y-84420000D01*
X152048992Y-84593254D01*
X152099528Y-84759850D01*
X152181595Y-84913386D01*
X152292038Y-85047962D01*
X152426614Y-85158405D01*
X152535001Y-85216339D01*
X152535001Y-85829867D01*
X146129869Y-92235000D01*
X145884042Y-92235000D01*
X145558504Y-92299754D01*
X145487897Y-92329000D01*
X129540000Y-92329000D01*
X129416118Y-92341201D01*
X129296996Y-92377336D01*
X129187213Y-92436017D01*
X129090987Y-92514987D01*
X128074987Y-93530987D01*
X127996017Y-93627213D01*
X127937336Y-93736996D01*
X127901201Y-93856118D01*
X127889000Y-93980000D01*
X121735000Y-93980000D01*
X121735000Y-89535000D01*
X129203461Y-89535000D01*
X129249510Y-90002542D01*
X129385887Y-90452116D01*
X129607351Y-90866446D01*
X129905391Y-91229609D01*
X130268554Y-91527649D01*
X130682884Y-91749113D01*
X131132458Y-91885490D01*
X131482843Y-91920000D01*
X135217157Y-91920000D01*
X135567542Y-91885490D01*
X136017116Y-91749113D01*
X136431446Y-91527649D01*
X136794609Y-91229609D01*
X137092649Y-90866446D01*
X137314113Y-90452116D01*
X137450490Y-90002542D01*
X137496539Y-89535000D01*
X137450490Y-89067458D01*
X137314113Y-88617884D01*
X137092649Y-88203554D01*
X136794609Y-87840391D01*
X136431446Y-87542351D01*
X136017116Y-87320887D01*
X135567542Y-87184510D01*
X135217157Y-87150000D01*
X131482843Y-87150000D01*
X131132458Y-87184510D01*
X130682884Y-87320887D01*
X130268554Y-87542351D01*
X129905391Y-87840391D01*
X129607351Y-88203554D01*
X129385887Y-88617884D01*
X129249510Y-89067458D01*
X129203461Y-89535000D01*
X121735000Y-89535000D01*
X121735000Y-83683003D01*
X129267573Y-83683003D01*
X129347947Y-83980368D01*
X129546388Y-84404439D01*
X129823748Y-84781648D01*
X130169369Y-85097498D01*
X130569968Y-85339852D01*
X131010150Y-85499396D01*
X131473000Y-85570000D01*
X133223000Y-85570000D01*
X133223000Y-83312000D01*
X133477000Y-83312000D01*
X133477000Y-85570000D01*
X135227000Y-85570000D01*
X135689850Y-85499396D01*
X136130032Y-85339852D01*
X136530631Y-85097498D01*
X136876252Y-84781648D01*
X137153612Y-84404439D01*
X137352053Y-83980368D01*
X137432427Y-83683003D01*
X137322625Y-83312000D01*
X133477000Y-83312000D01*
X133223000Y-83312000D01*
X129377375Y-83312000D01*
X129267573Y-83683003D01*
X121735000Y-83683003D01*
X121735000Y-82686997D01*
X129267573Y-82686997D01*
X129377375Y-83058000D01*
X133223000Y-83058000D01*
X133223000Y-80800000D01*
X133477000Y-80800000D01*
X133477000Y-83058000D01*
X137322625Y-83058000D01*
X137432427Y-82686997D01*
X137352053Y-82389632D01*
X137153612Y-81965561D01*
X136876252Y-81588352D01*
X136530631Y-81272502D01*
X136130032Y-81030148D01*
X135945075Y-80963110D01*
X152078524Y-80963110D01*
X152199845Y-81193000D01*
X153543000Y-81193000D01*
X153543000Y-79992768D01*
X153797000Y-79992768D01*
X153797000Y-81193000D01*
X155140155Y-81193000D01*
X155261476Y-80963110D01*
X155259554Y-80950739D01*
X155159854Y-80676991D01*
X155008664Y-80427954D01*
X154811795Y-80213198D01*
X154576812Y-80040975D01*
X154312745Y-79917904D01*
X154029742Y-79848715D01*
X153797000Y-79992768D01*
X153543000Y-79992768D01*
X153310258Y-79848715D01*
X153027255Y-79917904D01*
X152763188Y-80040975D01*
X152528205Y-80213198D01*
X152331336Y-80427954D01*
X152180146Y-80676991D01*
X152080446Y-80950739D01*
X152078524Y-80963110D01*
X135945075Y-80963110D01*
X135689850Y-80870604D01*
X135227000Y-80800000D01*
X133477000Y-80800000D01*
X133223000Y-80800000D01*
X131473000Y-80800000D01*
X131010150Y-80870604D01*
X130569968Y-81030148D01*
X130169369Y-81272502D01*
X129823748Y-81588352D01*
X129546388Y-81965561D01*
X129347947Y-82389632D01*
X129267573Y-82686997D01*
X121735000Y-82686997D01*
X121735000Y-80127000D01*
X127000000Y-80127000D01*
X127024776Y-80124560D01*
X127048601Y-80117333D01*
X127070557Y-80105597D01*
X127089803Y-80089803D01*
X129089803Y-78089803D01*
X129105597Y-78070557D01*
X129117333Y-78048601D01*
X129124560Y-78024776D01*
X129127000Y-78000000D01*
X129127000Y-72735000D01*
X169873000Y-72735000D01*
X169873000Y-78000000D01*
G04 #@! TD*
M02*
